<?xml version="1.0" encoding="us-ascii" standalone="no"?><svg xmlns="http://www.w3.org/2000/svg" xmlns:xlink="http://www.w3.org/1999/xlink" contentStyleType="text/css" height="737px" preserveAspectRatio="none" style="width:618px;height:737px;background:#FFFFFF;" version="1.1" viewBox="0 0 618 737" width="618px" zoomAndPan="magnify"><defs/><g><rect fill="none" height="20.9531" style="stroke:none;stroke-width:1.0;" width="585" x="15" y="12.7451"/><ellipse cx="354" cy="48.6982" fill="#222222" rx="10" ry="10" style="stroke:#222222;stroke-width:1.0;"/><rect fill="none" height="96.2344" style="stroke:#000000;stroke-width:1.5;" width="194" x="257" y="68.6982"/><path d="M318,68.6982 L318,77.9951 L308,87.9951 L257,87.9951 " fill="none" style="stroke:#000000;stroke-width:1.5;"/><text fill="#000000" font-family="sans-serif" font-size="14" lengthAdjust="spacing" textLength="51" x="260" y="82.6934">FastAPI</text><rect fill="#F1F1F1" height="47.9375" rx="12.5" ry="12.5" style="stroke:#181818;stroke-width:0.5;" width="174" x="267" y="104.9951"/><text fill="#000000" font-family="sans-serif" font-size="12" lengthAdjust="spacing" textLength="49" x="277" y="126.1338">Request</text><text fill="#000000" font-family="monospace" font-size="12" lengthAdjust="spacing" textLength="154" x="277" y="140.1025">/{account_id}/clusters</text><path d="M87,174.9326 L87,245.4639 A0,0 0 0 0 87,245.4639 L280,245.4639 A0,0 0 0 0 280,245.4639 L280,214.1982 L300,210.1982 L280,206.1982 L280,184.9326 L270,174.9326 L87,174.9326 A0,0 0 0 0 87,174.9326 " fill="#FEFFDD" style="stroke:#181818;stroke-width:0.5;"/><path d="M270,174.9326 L270,184.9326 L280,184.9326 L270,174.9326 " fill="#FEFFDD" style="stroke:#181818;stroke-width:0.5;"/><text fill="#000000" font-family="sans-serif" font-size="13" lengthAdjust="spacing" textLength="172" x="93" y="191.9995">Model Containing the total</text><text fill="#000000" font-family="sans-serif" font-size="13" lengthAdjust="spacing" textLength="134" x="93" y="207.1323">amount of resources</text><text fill="#000000" font-family="sans-serif" font-size="13" lengthAdjust="spacing" textLength="112" x="93" y="222.2651">requested for the</text><text fill="#000000" font-family="sans-serif" font-size="13" lengthAdjust="spacing" textLength="84" x="93" y="237.3979">provisioning.</text><polygon fill="#F1F1F1" points="300,193.2139,418,193.2139,408,210.1982,418,227.1826,300,227.1826" style="stroke:#181818;stroke-width:0.5;"/><text fill="#000000" font-family="sans-serif" font-size="12" lengthAdjust="spacing" textLength="88" x="310" y="214.3525">ResourceClaim</text><rect fill="none" height="111.8281" style="stroke:#000000;stroke-width:1.5;" width="324" x="78" y="255.4639"/><path d="M290,255.4639 L290,264.7607 L280,274.7607 L78,274.7607 " fill="none" style="stroke:#000000;stroke-width:1.5;"/><text fill="#000000" font-family="sans-serif" font-size="14" lengthAdjust="spacing" textLength="202" x="81" y="269.459">DbClusterProvisionerService</text><path d="M88,284.7607 L88,355.292 A0,0 0 0 0 88,355.292 L296,355.292 A0,0 0 0 0 296,355.292 L296,324.0264 L316,320.0264 L296,316.0264 L296,294.7607 L286,284.7607 L88,284.7607 A0,0 0 0 0 88,284.7607 " fill="#FEFFDD" style="stroke:#181818;stroke-width:0.5;"/><path d="M286,284.7607 L286,294.7607 L296,294.7607 L286,284.7607 " fill="#FEFFDD" style="stroke:#181818;stroke-width:0.5;"/><text fill="#000000" font-family="sans-serif" font-size="13" lengthAdjust="spacing" textLength="187" x="94" y="301.8276">Reserve Compute Resources</text><text fill="#000000" font-family="sans-serif" font-size="13" lengthAdjust="spacing" textLength="153" x="94" y="316.9604">(disk, cpu, memory) for</text><text fill="#000000" font-family="sans-serif" font-size="13" lengthAdjust="spacing" textLength="117" x="94" y="332.0933">Qdrant DB Cluster</text><text fill="#000000" font-family="sans-serif" font-size="13" lengthAdjust="spacing" textLength="84" x="94" y="347.2261">provisioning.</text><rect fill="#F1F1F1" height="33.9688" style="stroke:#181818;stroke-width:0.5;" width="76" x="316" y="303.042"/><text fill="#000000" font-family="sans-serif" font-size="12" lengthAdjust="spacing" textLength="56" x="326" y="324.1807">allocate()</text><path d="M63.5,377.292 L63.5,432.6904 A0,0 0 0 0 63.5,432.6904 L267.5,432.6904 A0,0 0 0 0 267.5,432.6904 L267.5,408.9912 L287.5,404.9912 L267.5,400.9912 L267.5,387.292 L257.5,377.292 L63.5,377.292 A0,0 0 0 0 63.5,377.292 " fill="#FEFFDD" style="stroke:#181818;stroke-width:0.5;"/><path d="M257.5,377.292 L257.5,387.292 L267.5,387.292 L257.5,377.292 " fill="#FEFFDD" style="stroke:#181818;stroke-width:0.5;"/><text fill="#000000" font-family="sans-serif" font-size="13" lengthAdjust="spacing" textLength="183" x="69.5" y="394.3589">Model Containing the region</text><text fill="#000000" font-family="sans-serif" font-size="13" lengthAdjust="spacing" textLength="177" x="69.5" y="409.4917">and the K8s cluster elected</text><text fill="#000000" font-family="sans-serif" font-size="13" lengthAdjust="spacing" textLength="131" x="69.5" y="424.6245">for the provisioning.</text><polygon fill="#F1F1F1" points="287.5,388.0068,420.5,388.0068,430.5,404.9912,420.5,421.9756,287.5,421.9756" style="stroke:#181818;stroke-width:0.5;"/><text fill="#000000" font-family="sans-serif" font-size="12" lengthAdjust="spacing" textLength="113" x="297.5" y="409.1455">ResourceAllocation</text><rect fill="none" height="88.4141" style="stroke:#000000;stroke-width:1.5;" width="298" x="104" y="442.6904"/><path d="M301,442.6904 L301,451.9873 L291,461.9873 L104,461.9873 " fill="none" style="stroke:#000000;stroke-width:1.5;"/><text fill="#000000" font-family="sans-serif" font-size="14" lengthAdjust="spacing" textLength="187" x="107" y="456.6855">DBClusterEndpointService</text><path d="M114,478.8389 L114,519.1045 A0,0 0 0 0 114,519.1045 L296,519.1045 A0,0 0 0 0 296,519.1045 L296,502.9717 L316,498.9717 L296,494.9717 L296,488.8389 L286,478.8389 L114,478.8389 A0,0 0 0 0 114,478.8389 " fill="#FEFFDD" style="stroke:#181818;stroke-width:0.5;"/><path d="M286,478.8389 L286,488.8389 L296,488.8389 L286,478.8389 " fill="#FEFFDD" style="stroke:#181818;stroke-width:0.5;"/><text fill="#000000" font-family="sans-serif" font-size="13" lengthAdjust="spacing" textLength="146" x="120" y="495.9058">Generate the Endpoint</text><text fill="#000000" font-family="sans-serif" font-size="13" lengthAdjust="spacing" textLength="161" x="120" y="511.0386">for Qdrant DB accessing.</text><rect fill="#F1F1F1" height="33.9688" style="stroke:#181818;stroke-width:0.5;" width="76" x="316" y="481.9873"/><line style="stroke:#181818;stroke-width:0.5;" x1="321" x2="321" y1="481.9873" y2="515.9561"/><line style="stroke:#181818;stroke-width:0.5;" x1="387" x2="387" y1="481.9873" y2="515.9561"/><text fill="#000000" font-family="sans-serif" font-size="12" lengthAdjust="spacing" textLength="56" x="326" y="503.126">register()</text><rect fill="none" height="88.4141" style="stroke:#000000;stroke-width:1.5;" width="404" x="21" y="541.1045"/><path d="M233,541.1045 L233,550.4014 L223,560.4014 L21,560.4014 " fill="none" style="stroke:#000000;stroke-width:1.5;"/><text fill="#000000" font-family="sans-serif" font-size="14" lengthAdjust="spacing" textLength="202" x="24" y="555.0996">DbClusterProvisionerService</text><path d="M31,577.2529 L31,617.5186 A0,0 0 0 0 31,617.5186 L273,617.5186 A0,0 0 0 0 273,617.5186 L273,601.3857 L293,597.3857 L273,593.3857 L273,587.2529 L263,577.2529 L31,577.2529 A0,0 0 0 0 31,577.2529 " fill="#FEFFDD" style="stroke:#181818;stroke-width:0.5;"/><path d="M263,577.2529 L263,587.2529 L273,587.2529 L263,577.2529 " fill="#FEFFDD" style="stroke:#181818;stroke-width:0.5;"/><text fill="#000000" font-family="sans-serif" font-size="13" lengthAdjust="spacing" textLength="149" x="37" y="594.3198">Generate and Dispatch</text><text fill="#000000" font-family="sans-serif" font-size="13" lengthAdjust="spacing" textLength="221" x="37" y="609.4526">the Command ProvisionDBCluster</text><rect fill="#F1F1F1" height="33.9688" style="stroke:#181818;stroke-width:0.5;" width="122" x="293" y="580.4014"/><text fill="#000000" font-family="sans-serif" font-size="12" lengthAdjust="spacing" textLength="102" x="303" y="601.54">claim_provision()</text><line style="stroke:#000000;stroke-width:1.5;" x1="15" x2="15" y1="12.7451" y2="725.4873"/><rect fill="#FFD700" height="712.7422" style="stroke:#FFD700;stroke-width:1.0;" width="143" x="455" y="12.7451"/><rect fill="#555555" height="6" rx="2.5" ry="2.5" style="stroke:#555555;stroke-width:1.0;" width="106" x="474.5" y="649.5186"/><rect fill="#F1F1F1" height="33.9688" style="stroke:#181818;stroke-width:0.5;" width="82" x="486.5" y="675.5186"/><line style="stroke:#181818;stroke-width:0.5;" x1="491.5" x2="491.5" y1="675.5186" y2="709.4873"/><line style="stroke:#181818;stroke-width:0.5;" x1="563.5" x2="563.5" y1="675.5186" y2="709.4873"/><text fill="#000000" font-family="sans-serif" font-size="12" lengthAdjust="spacing" textLength="62" x="496.5" y="696.6572">dispatch()</text><rect fill="#555555" height="6" rx="2.5" ry="2.5" style="stroke:#555555;stroke-width:1.0;" width="106" x="474.5" y="719.4873"/><line style="stroke:#000000;stroke-width:1.5;" x1="455" x2="455" y1="12.7451" y2="725.4873"/><line style="stroke:#000000;stroke-width:1.5;" x1="598" x2="598" y1="12.7451" y2="725.4873"/><line style="stroke:#181818;stroke-width:1.0;" x1="354" x2="354" y1="58.6982" y2="104.9951"/><polygon fill="#181818" points="350,94.9951,354,104.9951,358,94.9951,354,98.9951" style="stroke:#181818;stroke-width:1.0;"/><line style="stroke:#181818;stroke-width:1.0;" x1="354" x2="354" y1="152.9326" y2="193.2139"/><polygon fill="#181818" points="350,183.2139,354,193.2139,358,183.2139,354,187.2139" style="stroke:#181818;stroke-width:1.0;"/><line style="stroke:#181818;stroke-width:1.0;" x1="354" x2="354" y1="227.1826" y2="303.042"/><polygon fill="#181818" points="350,293.042,354,303.042,358,293.042,354,297.042" style="stroke:#181818;stroke-width:1.0;"/><line style="stroke:#181818;stroke-width:1.0;" x1="354" x2="354" y1="337.0107" y2="388.0068"/><polygon fill="#181818" points="350,378.0068,354,388.0068,358,378.0068,354,382.0068" style="stroke:#181818;stroke-width:1.0;"/><line style="stroke:#181818;stroke-width:1.0;" x1="354" x2="354" y1="421.9756" y2="481.9873"/><polygon fill="#181818" points="350,471.9873,354,481.9873,358,471.9873,354,475.9873" style="stroke:#181818;stroke-width:1.0;"/><line style="stroke:#181818;stroke-width:1.0;" x1="354" x2="354" y1="515.9561" y2="580.4014"/><polygon fill="#181818" points="350,570.4014,354,580.4014,358,570.4014,354,574.4014" style="stroke:#181818;stroke-width:1.0;"/><line style="stroke:#181818;stroke-width:1.0;" x1="527.5" x2="527.5" y1="655.5186" y2="675.5186"/><polygon fill="#181818" points="523.5,665.5186,527.5,675.5186,531.5,665.5186,527.5,669.5186" style="stroke:#181818;stroke-width:1.0;"/><line style="stroke:#181818;stroke-width:1.0;" x1="354" x2="354" y1="614.3701" y2="634.5186"/><line style="stroke:#181818;stroke-width:1.0;" x1="354" x2="527.5" y1="634.5186" y2="634.5186"/><line style="stroke:#181818;stroke-width:1.0;" x1="527.5" x2="527.5" y1="634.5186" y2="649.5186"/><polygon fill="#181818" points="523.5,639.5186,527.5,649.5186,531.5,639.5186,527.5,643.5186" style="stroke:#181818;stroke-width:1.0;"/><text fill="#000000" font-family="sans-serif" font-size="18" lengthAdjust="spacing" textLength="48" x="211" y="29.4531">Orion</text><text fill="#000000" font-family="sans-serif" font-size="18" lengthAdjust="spacing" textLength="131" x="464" y="29.4531">Command Bus</text><!--SRC=[ZPBTJiCm38NlynJMkDcaYTqYG9FO1WWXnDy3e91uMxGqAOap2QrxTvosT4C3j5xqmdQFltFSwZ4OxoeHIGOI9RyCSG5kPAIhfplOYFCN_4WOIVHweurKoYT7RqPlHygcI1XYhtSXjdai-XGKJgqqnGLSNXfN9XgFXVE4O75E0lXvy1ejJBqZQPnn2w0b0dcIjcxB8kk3dqDezM9T3mq4QfZxaB-fgsNmQnEPbuLEkO9EGrudzfpCtgSDwDFtC8PN36kZCBkJrdeb2Vk3p4mohWwGsHdF8qCNx0ZXvGTPNvku6e8gqn0AB7pu76J6klUiWsGtimcq3BzGTynRiGlngg7YcKpb4nqTPS05VzLaoSgvT7yMeJqMe4N5ATRzDic_UFOpdBJyrqwNtZZQ2p0lpAqcGDPIg5F00zfRvE0vw7hbjqx7iKkAVp6CyI2Qem-gyl_trddwvwuTKGvgPc8fIIthJaRaQnUvqMtfGjZdgauMtkeAgsv-ag9WHok-fcur3wFHI99tiL0U_G80]--></g></svg>