<?xml version="1.0" encoding="us-ascii" standalone="no"?><svg xmlns="http://www.w3.org/2000/svg" xmlns:xlink="http://www.w3.org/1999/xlink" contentStyleType="text/css" height="1398px" preserveAspectRatio="none" style="width:609px;height:1398px;background:#FFFFFF;" version="1.1" viewBox="0 0 609 1398" width="609px" zoomAndPan="magnify"><defs/><g><ellipse cx="413.5" cy="20" fill="#222222" rx="10" ry="10" style="stroke:#222222;stroke-width:1.0;"/><rect fill="none" height="110.2031" style="stroke:#000000;stroke-width:1.5;" width="326" x="250.5" y="40"/><path d="M370.5,40 L370.5,49.2969 L360.5,59.2969 L250.5,59.2969 " fill="none" style="stroke:#000000;stroke-width:1.5;"/><text fill="#000000" font-family="sans-serif" font-size="14" lengthAdjust="spacing" textLength="110" x="253.5" y="53.9951">Twisted.reactor</text><rect fill="#F1F1F1" height="61.9063" rx="12.5" ry="12.5" style="stroke:#181818;stroke-width:0.5;" width="306" x="260.5" y="76.2969"/><text fill="#000000" font-family="sans-serif" font-size="12" lengthAdjust="spacing" textLength="250" x="270.5" y="97.4355">Any HTTP Request Qdrant API compatible</text><text fill="#000000" font-family="sans-serif" font-size="12" lengthAdjust="spacing" textLength="209" x="270.5" y="111.4043">on any HTTP Method (GET,POST...)</text><text fill="#000000" font-family="sans-serif" font-size="12" lengthAdjust="spacing" textLength="23" x="270.5" y="125.373">e.g.</text><text fill="#000000" font-family="monospace" font-size="12" lengthAdjust="spacing" textLength="259" x="297.5" y="125.373">/collections/{collection_name}/points</text><rect fill="none" height="439.6797" style="stroke:#000000;stroke-width:1.5;" width="585.5" x="13" y="160.2031"/><path d="M241,160.2031 L241,169.5 L231,179.5 L13,179.5 " fill="none" style="stroke:#000000;stroke-width:1.5;"/><text fill="#000000" font-family="sans-serif" font-size="14" lengthAdjust="spacing" textLength="218" x="16" y="174.1982">CustomReverseProxyResource</text><path d="M97.5,189.5 L97.5,260.0313 A0,0 0 0 0 97.5,260.0313 L353.5,260.0313 A0,0 0 0 0 353.5,260.0313 L353.5,228.7656 L373.5,224.7656 L353.5,220.7656 L353.5,199.5 L343.5,189.5 L97.5,189.5 A0,0 0 0 0 97.5,189.5 " fill="#FEFFDD" style="stroke:#181818;stroke-width:0.5;"/><path d="M343.5,189.5 L343.5,199.5 L353.5,199.5 L343.5,189.5 " fill="#FEFFDD" style="stroke:#181818;stroke-width:0.5;"/><text fill="#000000" font-family="sans-serif" font-size="13" lengthAdjust="spacing" textLength="235" x="103.5" y="206.5669">Twisted ReverseProxyResource that</text><text fill="#000000" font-family="sans-serif" font-size="13" lengthAdjust="spacing" textLength="184" x="103.5" y="221.6997">allow us to modify the HTTP</text><text fill="#000000" font-family="sans-serif" font-size="13" lengthAdjust="spacing" textLength="185" x="103.5" y="236.8325">Request before proxying the</text><text fill="#000000" font-family="sans-serif" font-size="13" lengthAdjust="spacing" textLength="75" x="103.5" y="251.9653">connection.</text><rect fill="#F1F1F1" height="33.9688" style="stroke:#181818;stroke-width:0.5;" width="80" x="373.5" y="207.7813"/><text fill="#000000" font-family="sans-serif" font-size="12" lengthAdjust="spacing" textLength="60" x="383.5" y="228.9199">getChild()</text><rect fill="none" height="317.8516" style="stroke:#000000;stroke-width:1.5;" width="565.5" x="23" y="270.0313"/><path d="M147,270.0313 L147,279.3281 L137,289.3281 L23,289.3281 " fill="none" style="stroke:#000000;stroke-width:1.5;"/><text fill="#000000" font-family="sans-serif" font-size="14" lengthAdjust="spacing" textLength="114" x="26" y="284.0264">HeaderEnforcer</text><path d="M33,305.5977 L33,360.9961 A0,0 0 0 0 33,360.9961 L304,360.9961 A0,0 0 0 0 304,360.9961 L304,337.2969 L324,333.2969 L304,329.2969 L304,315.5977 L294,305.5977 L33,305.5977 A0,0 0 0 0 33,305.5977 " fill="#FEFFDD" style="stroke:#181818;stroke-width:0.5;"/><path d="M294,305.5977 L294,315.5977 L304,315.5977 L294,305.5977 " fill="#FEFFDD" style="stroke:#181818;stroke-width:0.5;"/><text fill="#000000" font-family="sans-serif" font-size="13" lengthAdjust="spacing" textLength="233" x="39" y="322.6646">The Host Header should match with</text><text fill="#000000" font-family="sans-serif" font-size="13" lengthAdjust="spacing" textLength="250" x="39" y="337.7974">the generated endpoint created during</text><text fill="#000000" font-family="sans-serif" font-size="13" lengthAdjust="spacing" textLength="137" x="39" y="352.9302">the cluster provision.</text><rect fill="#F1F1F1" height="47.9375" style="stroke:#181818;stroke-width:0.5;" width="179" x="324" y="309.3281"/><text fill="#000000" font-family="sans-serif" font-size="12" lengthAdjust="spacing" textLength="159" x="334" y="330.4668">Ensure 'Host' and 'api-key'</text><text fill="#000000" font-family="sans-serif" font-size="12" lengthAdjust="spacing" textLength="125" x="334" y="344.4355">headers are present.</text><line style="stroke:#181818;stroke-width:1.5;" x1="313" x2="491" y1="380.9961" y2="380.9961"/><rect fill="#F1F1F1" height="33.9688" rx="12.5" ry="12.5" style="stroke:#181818;stroke-width:0.5;" width="107" x="259.5" y="449.3984"/><text fill="#000000" font-family="sans-serif" font-size="12" lengthAdjust="spacing" textLength="87" x="269.5" y="470.5371">404 NotFound</text><ellipse cx="313" cy="522.8828" fill="none" rx="11" ry="11" style="stroke:#222222;stroke-width:1.0;"/><ellipse cx="313" cy="522.8828" fill="#222222" rx="6" ry="6" style="stroke:#222222;stroke-width:1.0;"/><polygon fill="#F1F1F1" points="277.5,400.9961,348.5,400.9961,360.5,412.9961,348.5,424.9961,277.5,424.9961,265.5,412.9961,277.5,400.9961" style="stroke:#181818;stroke-width:0.5;"/><text fill="#000000" font-family="sans-serif" font-size="11" lengthAdjust="spacing" textLength="14" x="317" y="435.2065">no</text><text fill="#000000" font-family="monospace" font-size="11" font-weight="bold" lengthAdjust="spacing" textLength="28" x="277.5" y="416.8042">Host</text><text fill="#000000" font-family="sans-serif" font-size="11" lengthAdjust="spacing" textLength="39" x="309.5" y="416.8042">exists?</text><text fill="#000000" font-family="sans-serif" font-size="11" lengthAdjust="spacing" textLength="20" x="360.5" y="410.4019">yes</text><rect fill="#F1F1F1" height="33.9688" rx="12.5" ry="12.5" style="stroke:#181818;stroke-width:0.5;" width="129" x="426.5" y="449.3984"/><text fill="#000000" font-family="sans-serif" font-size="12" lengthAdjust="spacing" textLength="109" x="436.5" y="470.5371">401 Unauthorized</text><ellipse cx="491" cy="522.8828" fill="none" rx="11" ry="11" style="stroke:#222222;stroke-width:1.0;"/><ellipse cx="491" cy="522.8828" fill="#222222" rx="6" ry="6" style="stroke:#222222;stroke-width:1.0;"/><polygon fill="#F1F1F1" points="445,400.9961,537,400.9961,549,412.9961,537,424.9961,445,424.9961,433,412.9961,445,400.9961" style="stroke:#181818;stroke-width:0.5;"/><text fill="#000000" font-family="sans-serif" font-size="11" lengthAdjust="spacing" textLength="14" x="495" y="435.2065">no</text><text fill="#000000" font-family="monospace" font-size="11" font-weight="bold" lengthAdjust="spacing" textLength="49" x="445" y="416.8042">api-key</text><text fill="#000000" font-family="sans-serif" font-size="11" lengthAdjust="spacing" textLength="39" x="498" y="416.8042">exists?</text><text fill="#000000" font-family="sans-serif" font-size="11" lengthAdjust="spacing" textLength="20" x="549" y="410.4019">yes</text><line style="stroke:#181818;stroke-width:1.5;" x1="313" x2="491" y1="575.8828" y2="575.8828"/><rect fill="none" height="82.2656" style="stroke:#000000;stroke-width:1.5;" width="260" x="283.5" y="609.8828"/><path d="M401.5,609.8828 L401.5,619.1797 L391.5,629.1797 L283.5,629.1797 " fill="none" style="stroke:#000000;stroke-width:1.5;"/><text fill="#000000" font-family="sans-serif" font-size="14" lengthAdjust="spacing" textLength="108" x="286.5" y="623.8779">RoutingService</text><rect fill="#F1F1F1" height="33.9688" style="stroke:#181818;stroke-width:0.5;" width="240" x="293.5" y="646.1797"/><text fill="#000000" font-family="sans-serif" font-size="12" lengthAdjust="spacing" textLength="220" x="303.5" y="667.3184">intercept_request(request: Request)</text><rect fill="none" height="243.1836" style="stroke:#000000;stroke-width:1.5;" width="363" x="225.5" y="702.1484"/><path d="M405.5,702.1484 L405.5,711.4453 L395.5,721.4453 L225.5,721.4453 " fill="none" style="stroke:#000000;stroke-width:1.5;"/><text fill="#000000" font-family="sans-serif" font-size="14" lengthAdjust="spacing" textLength="170" x="228.5" y="716.1436">ApiKeyEnforcingService</text><line style="stroke:#181818;stroke-width:1.5;" x1="313" x2="491" y1="738.4453" y2="738.4453"/><rect fill="#F1F1F1" height="33.9688" rx="12.5" ry="12.5" style="stroke:#181818;stroke-width:0.5;" width="107" x="259.5" y="806.8477"/><text fill="#000000" font-family="sans-serif" font-size="12" lengthAdjust="spacing" textLength="87" x="269.5" y="827.9863">404 NotFound</text><ellipse cx="313" cy="880.332" fill="none" rx="11" ry="11" style="stroke:#222222;stroke-width:1.0;"/><ellipse cx="313" cy="880.332" fill="#222222" rx="6" ry="6" style="stroke:#222222;stroke-width:1.0;"/><polygon fill="#F1F1F1" points="261.5,758.4453,364.5,758.4453,376.5,770.4453,364.5,782.4453,261.5,782.4453,249.5,770.4453,261.5,758.4453" style="stroke:#181818;stroke-width:0.5;"/><text fill="#000000" font-family="sans-serif" font-size="11" lengthAdjust="spacing" textLength="14" x="317" y="792.6558">no</text><text fill="#000000" font-family="sans-serif" font-size="11" lengthAdjust="spacing" textLength="103" x="261.5" y="774.2534">is_valid_endpoint?</text><text fill="#000000" font-family="sans-serif" font-size="11" lengthAdjust="spacing" textLength="20" x="376.5" y="767.8511">yes</text><rect fill="#F1F1F1" height="33.9688" rx="12.5" ry="12.5" style="stroke:#181818;stroke-width:0.5;" width="129" x="426.5" y="806.8477"/><text fill="#000000" font-family="sans-serif" font-size="12" lengthAdjust="spacing" textLength="109" x="436.5" y="827.9863">401 Unauthorized</text><ellipse cx="491" cy="880.332" fill="none" rx="11" ry="11" style="stroke:#222222;stroke-width:1.0;"/><ellipse cx="491" cy="880.332" fill="#222222" rx="6" ry="6" style="stroke:#222222;stroke-width:1.0;"/><polygon fill="#F1F1F1" points="442.5,758.4453,539.5,758.4453,551.5,770.4453,539.5,782.4453,442.5,782.4453,430.5,770.4453,442.5,758.4453" style="stroke:#181818;stroke-width:0.5;"/><text fill="#000000" font-family="sans-serif" font-size="11" lengthAdjust="spacing" textLength="14" x="495" y="792.6558">no</text><text fill="#000000" font-family="sans-serif" font-size="11" lengthAdjust="spacing" textLength="97" x="442.5" y="774.2534">is_valid_api_key?</text><text fill="#000000" font-family="sans-serif" font-size="11" lengthAdjust="spacing" textLength="20" x="551.5" y="767.8511">yes</text><line style="stroke:#181818;stroke-width:1.5;" x1="313" x2="491" y1="933.332" y2="933.332"/><path d="M49.5,955.332 L49.5,1025.8633 A0,0 0 0 0 49.5,1025.8633 L342.5,1025.8633 A0,0 0 0 0 342.5,1025.8633 L342.5,994.5977 L362.5,990.5977 L342.5,986.5977 L342.5,965.332 L332.5,955.332 L49.5,955.332 A0,0 0 0 0 49.5,955.332 " fill="#FEFFDD" style="stroke:#181818;stroke-width:0.5;"/><path d="M332.5,955.332 L332.5,965.332 L342.5,965.332 L332.5,955.332 " fill="#FEFFDD" style="stroke:#181818;stroke-width:0.5;"/><text fill="#000000" font-family="monospace" font-size="13" lengthAdjust="spacing" textLength="120" x="55.5" y="972.3989">original:&#160;Route</text><text fill="#000000" font-family="monospace" font-size="13" font-weight="bold" lengthAdjust="spacing" textLength="200" x="55.5" y="987.5317">proxy_to:&#160;Optional[Route]</text><text fill="#000000" font-family="monospace" font-size="13" font-weight="bold" lengthAdjust="spacing" textLength="152" x="55.5" y="1002.6646">authenticated:&#160;bool</text><text fill="#000000" font-family="monospace" font-size="13" lengthAdjust="spacing" textLength="272" x="55.5" y="1017.7974">additional_headers:&#160;Dict[str,&#160;str]</text><polygon fill="#F1F1F1" points="362.5,973.6133,464.5,973.6133,474.5,990.5977,464.5,1007.582,362.5,1007.582" style="stroke:#181818;stroke-width:0.5;"/><text fill="#000000" font-family="sans-serif" font-size="12" lengthAdjust="spacing" textLength="82" x="372.5" y="994.752">ProxyRequest</text><rect fill="none" height="96.6953" style="stroke:#000000;stroke-width:1.5;" width="477" x="35.5" y="1035.8633"/><path d="M263.5,1035.8633 L263.5,1045.1602 L253.5,1055.1602 L35.5,1055.1602 " fill="none" style="stroke:#000000;stroke-width:1.5;"/><text fill="#000000" font-family="sans-serif" font-size="14" lengthAdjust="spacing" textLength="218" x="38.5" y="1049.8584">CustomReverseProxyResource</text><path d="M45.5,1065.1602 L45.5,1120.5586 A0,0 0 0 0 45.5,1120.5586 L304.5,1120.5586 A0,0 0 0 0 304.5,1120.5586 L304.5,1096.8594 L324.5,1092.8594 L304.5,1088.8594 L304.5,1075.1602 L294.5,1065.1602 L45.5,1065.1602 A0,0 0 0 0 45.5,1065.1602 " fill="#FEFFDD" style="stroke:#181818;stroke-width:0.5;"/><path d="M294.5,1065.1602 L294.5,1075.1602 L304.5,1075.1602 L294.5,1065.1602 " fill="#FEFFDD" style="stroke:#181818;stroke-width:0.5;"/><text fill="#000000" font-family="sans-serif" font-size="13" lengthAdjust="spacing" textLength="205" x="51.5" y="1082.2271">Replace Salt Hashing *api-key*</text><text fill="#000000" font-family="sans-serif" font-size="13" lengthAdjust="spacing" textLength="43" x="51.5" y="1097.3599">for the</text><text fill="#000000" font-family="sans-serif" font-size="13" font-weight="bold" lengthAdjust="spacing" textLength="191" x="98.5" y="1097.3599">Qdrant DB Cluster api-key</text><text fill="#000000" font-family="sans-serif" font-size="13" lengthAdjust="spacing" textLength="196" x="51.5" y="1112.4927">before re-routing the Request.</text><rect fill="#F1F1F1" height="33.9688" style="stroke:#181818;stroke-width:0.5;" width="178" x="324.5" y="1075.875"/><text fill="#000000" font-family="sans-serif" font-size="12" lengthAdjust="spacing" textLength="100" x="334.5" y="1097.0137">setRawHeaders('</text><text fill="#000000" font-family="sans-serif" font-size="12" font-weight="bold" lengthAdjust="spacing" textLength="50" x="434.5" y="1097.0137">api-key</text><text fill="#000000" font-family="sans-serif" font-size="12" lengthAdjust="spacing" textLength="8" x="484.5" y="1097.0137">')</text><polygon fill="#F1F1F1" points="335.5,1152.5586,491.5,1152.5586,501.5,1176.5273,491.5,1200.4961,335.5,1200.4961" style="stroke:#181818;stroke-width:0.5;"/><text fill="#000000" font-family="sans-serif" font-size="12" font-weight="bold" lengthAdjust="spacing" textLength="75" x="345.5" y="1173.6973">Proxy-Pass</text><text fill="#000000" font-family="sans-serif" font-size="12" lengthAdjust="spacing" textLength="50" x="424.5" y="1173.6973">Modified</text><text fill="#000000" font-family="sans-serif" font-size="12" lengthAdjust="spacing" textLength="136" x="345.5" y="1187.666">Request to destination</text><rect fill="none" height="135.0469" style="stroke:#000000;stroke-width:1.5;" width="519" x="11" y="1210.4961"/><path d="M156,1210.4961 L156,1219.793 L146,1229.793 L11,1229.793 " fill="none" style="stroke:#000000;stroke-width:1.5;"/><text fill="#000000" font-family="sans-serif" font-size="14" lengthAdjust="spacing" textLength="135" x="14" y="1224.4912">Kubernetes Cluster</text><path d="M31,1253.0117 L31,1323.543 L297,1323.543 L297,1263.0117 L287,1253.0117 L31,1253.0117 " fill="#FEFFDD" style="stroke:#181818;stroke-width:0.5;"/><path d="M287,1253.0117 L287,1263.0117 L297,1263.0117 L287,1253.0117 " fill="#FEFFDD" style="stroke:#181818;stroke-width:0.5;"/><text fill="#000000" font-family="sans-serif" font-size="13" lengthAdjust="spacing" textLength="186" x="37" y="1270.0786">Te Request to the Qdrant DB</text><text fill="#000000" font-family="sans-serif" font-size="13" lengthAdjust="spacing" textLength="220" x="37" y="1285.2114">Cluster will be balanced following</text><text fill="#000000" font-family="sans-serif" font-size="13" lengthAdjust="spacing" textLength="245" x="37" y="1300.3442">the internal Kubernetes Configuration</text><text fill="#000000" font-family="sans-serif" font-size="13" lengthAdjust="spacing" textLength="137" x="37" y="1315.4771">across Qdrant nodes.</text><line style="stroke:#181818;stroke-width:1.5;" x1="413.5" x2="413.5" y1="1249.793" y2="1249.793"/><rect fill="#F1F1F1" height="33.9688" rx="12.5" ry="12.5" style="stroke:#181818;stroke-width:0.5;" width="185" x="321" y="1271.293"/><text fill="#000000" font-family="sans-serif" font-size="12" lengthAdjust="spacing" textLength="165" x="331" y="1292.4316">K8s Service (LoadBalancer)</text><line style="stroke:#181818;stroke-width:1.5;" x1="413.5" x2="413.5" y1="1325.2617" y2="1325.2617"/><ellipse cx="413.5" cy="1376.543" fill="none" rx="11" ry="11" style="stroke:#222222;stroke-width:1.0;"/><ellipse cx="413.5" cy="1376.543" fill="#222222" rx="6" ry="6" style="stroke:#222222;stroke-width:1.0;"/><line style="stroke:#181818;stroke-width:1.0;" x1="413.5" x2="413.5" y1="30" y2="76.2969"/><polygon fill="#181818" points="409.5,66.2969,413.5,76.2969,417.5,66.2969,413.5,70.2969" style="stroke:#181818;stroke-width:1.0;"/><line style="stroke:#181818;stroke-width:1.0;" x1="313" x2="313" y1="483.3672" y2="511.8828"/><polygon fill="#181818" points="309,501.8828,313,511.8828,317,501.8828,313,505.8828" style="stroke:#181818;stroke-width:1.0;"/><line style="stroke:#181818;stroke-width:1.0;" x1="313" x2="313" y1="424.9961" y2="449.3984"/><polygon fill="#181818" points="309,439.3984,313,449.3984,317,439.3984,313,443.3984" style="stroke:#181818;stroke-width:1.0;"/><line style="stroke:#181818;stroke-width:1.0;" x1="360.5" x2="376.5" y1="412.9961" y2="412.9961"/><polygon fill="#181818" points="372.5,481.8828,376.5,491.8828,380.5,481.8828,376.5,485.8828" style="stroke:#181818;stroke-width:1.0;"/><line style="stroke:#181818;stroke-width:1.0;" x1="376.5" x2="376.5" y1="412.9961" y2="555.8828"/><line style="stroke:#181818;stroke-width:1.0;" x1="376.5" x2="313" y1="555.8828" y2="555.8828"/><line style="stroke:#181818;stroke-width:1.0;" x1="313" x2="313" y1="555.8828" y2="575.8828"/><polygon fill="#181818" points="309,565.8828,313,575.8828,317,565.8828,313,569.8828" style="stroke:#181818;stroke-width:1.0;"/><line style="stroke:#181818;stroke-width:1.0;" x1="491" x2="491" y1="483.3672" y2="511.8828"/><polygon fill="#181818" points="487,501.8828,491,511.8828,495,501.8828,491,505.8828" style="stroke:#181818;stroke-width:1.0;"/><line style="stroke:#181818;stroke-width:1.0;" x1="491" x2="491" y1="424.9961" y2="449.3984"/><polygon fill="#181818" points="487,439.3984,491,449.3984,495,439.3984,491,443.3984" style="stroke:#181818;stroke-width:1.0;"/><line style="stroke:#181818;stroke-width:1.0;" x1="549" x2="565.5" y1="412.9961" y2="412.9961"/><polygon fill="#181818" points="561.5,481.8828,565.5,491.8828,569.5,481.8828,565.5,485.8828" style="stroke:#181818;stroke-width:1.0;"/><line style="stroke:#181818;stroke-width:1.0;" x1="565.5" x2="565.5" y1="412.9961" y2="555.8828"/><line style="stroke:#181818;stroke-width:1.0;" x1="565.5" x2="491" y1="555.8828" y2="555.8828"/><line style="stroke:#181818;stroke-width:1.0;" x1="491" x2="491" y1="555.8828" y2="575.8828"/><polygon fill="#181818" points="487,565.8828,491,575.8828,495,565.8828,491,569.8828" style="stroke:#181818;stroke-width:1.0;"/><line style="stroke:#181818;stroke-width:1.0;" x1="313" x2="313" y1="382.4961" y2="400.9961"/><polygon fill="#181818" points="309,390.9961,313,400.9961,317,390.9961,313,394.9961" style="stroke:#181818;stroke-width:1.0;"/><line style="stroke:#181818;stroke-width:1.0;" x1="491" x2="491" y1="382.4961" y2="400.9961"/><polygon fill="#181818" points="487,390.9961,491,400.9961,495,390.9961,491,394.9961" style="stroke:#181818;stroke-width:1.0;"/><line style="stroke:#181818;stroke-width:1.0;" x1="413.5" x2="413.5" y1="357.2656" y2="380.9961"/><polygon fill="#181818" points="409.5,370.9961,413.5,380.9961,417.5,370.9961,413.5,374.9961" style="stroke:#181818;stroke-width:1.0;"/><line style="stroke:#181818;stroke-width:1.0;" x1="413.5" x2="413.5" y1="241.75" y2="309.3281"/><polygon fill="#181818" points="409.5,299.3281,413.5,309.3281,417.5,299.3281,413.5,303.3281" style="stroke:#181818;stroke-width:1.0;"/><line style="stroke:#181818;stroke-width:1.0;" x1="413.5" x2="413.5" y1="138.2031" y2="207.7813"/><polygon fill="#181818" points="409.5,197.7813,413.5,207.7813,417.5,197.7813,413.5,201.7813" style="stroke:#181818;stroke-width:1.0;"/><line style="stroke:#181818;stroke-width:1.0;" x1="413.5" x2="413.5" y1="577.3828" y2="646.1797"/><polygon fill="#181818" points="409.5,636.1797,413.5,646.1797,417.5,636.1797,413.5,640.1797" style="stroke:#181818;stroke-width:1.0;"/><line style="stroke:#181818;stroke-width:1.0;" x1="313" x2="313" y1="840.8164" y2="869.332"/><polygon fill="#181818" points="309,859.332,313,869.332,317,859.332,313,863.332" style="stroke:#181818;stroke-width:1.0;"/><line style="stroke:#181818;stroke-width:1.0;" x1="313" x2="313" y1="782.4453" y2="806.8477"/><polygon fill="#181818" points="309,796.8477,313,806.8477,317,796.8477,313,800.8477" style="stroke:#181818;stroke-width:1.0;"/><line style="stroke:#181818;stroke-width:1.0;" x1="376.5" x2="388.5" y1="770.4453" y2="770.4453"/><polygon fill="#181818" points="384.5,839.332,388.5,849.332,392.5,839.332,388.5,843.332" style="stroke:#181818;stroke-width:1.0;"/><line style="stroke:#181818;stroke-width:1.0;" x1="388.5" x2="388.5" y1="770.4453" y2="913.332"/><line style="stroke:#181818;stroke-width:1.0;" x1="388.5" x2="313" y1="913.332" y2="913.332"/><line style="stroke:#181818;stroke-width:1.0;" x1="313" x2="313" y1="913.332" y2="933.332"/><polygon fill="#181818" points="309,923.332,313,933.332,317,923.332,313,927.332" style="stroke:#181818;stroke-width:1.0;"/><line style="stroke:#181818;stroke-width:1.0;" x1="491" x2="491" y1="840.8164" y2="869.332"/><polygon fill="#181818" points="487,859.332,491,869.332,495,859.332,491,863.332" style="stroke:#181818;stroke-width:1.0;"/><line style="stroke:#181818;stroke-width:1.0;" x1="491" x2="491" y1="782.4453" y2="806.8477"/><polygon fill="#181818" points="487,796.8477,491,806.8477,495,796.8477,491,800.8477" style="stroke:#181818;stroke-width:1.0;"/><line style="stroke:#181818;stroke-width:1.0;" x1="551.5" x2="565.5" y1="770.4453" y2="770.4453"/><polygon fill="#181818" points="561.5,839.332,565.5,849.332,569.5,839.332,565.5,843.332" style="stroke:#181818;stroke-width:1.0;"/><line style="stroke:#181818;stroke-width:1.0;" x1="565.5" x2="565.5" y1="770.4453" y2="913.332"/><line style="stroke:#181818;stroke-width:1.0;" x1="565.5" x2="491" y1="913.332" y2="913.332"/><line style="stroke:#181818;stroke-width:1.0;" x1="491" x2="491" y1="913.332" y2="933.332"/><polygon fill="#181818" points="487,923.332,491,933.332,495,923.332,491,927.332" style="stroke:#181818;stroke-width:1.0;"/><line style="stroke:#181818;stroke-width:1.0;" x1="313" x2="313" y1="739.9453" y2="758.4453"/><polygon fill="#181818" points="309,748.4453,313,758.4453,317,748.4453,313,752.4453" style="stroke:#181818;stroke-width:1.0;"/><line style="stroke:#181818;stroke-width:1.0;" x1="491" x2="491" y1="739.9453" y2="758.4453"/><polygon fill="#181818" points="487,748.4453,491,758.4453,495,748.4453,491,752.4453" style="stroke:#181818;stroke-width:1.0;"/><line style="stroke:#181818;stroke-width:1.0;" x1="413.5" x2="413.5" y1="680.1484" y2="738.4453"/><polygon fill="#181818" points="409.5,728.4453,413.5,738.4453,417.5,728.4453,413.5,732.4453" style="stroke:#181818;stroke-width:1.0;"/><line style="stroke:#181818;stroke-width:1.0;" x1="413.5" x2="413.5" y1="934.832" y2="973.6133"/><polygon fill="#181818" points="409.5,963.6133,413.5,973.6133,417.5,963.6133,413.5,967.6133" style="stroke:#181818;stroke-width:1.0;"/><line style="stroke:#181818;stroke-width:1.0;" x1="413.5" x2="413.5" y1="1007.582" y2="1075.875"/><polygon fill="#181818" points="409.5,1065.875,413.5,1075.875,417.5,1065.875,413.5,1069.875" style="stroke:#181818;stroke-width:1.0;"/><line style="stroke:#181818;stroke-width:1.0;" x1="413.5" x2="413.5" y1="1109.8438" y2="1152.5586"/><polygon fill="#181818" points="409.5,1142.5586,413.5,1152.5586,417.5,1142.5586,413.5,1146.5586" style="stroke:#181818;stroke-width:1.0;"/><line style="stroke:#181818;stroke-width:1.0;" x1="413.5" x2="413.5" y1="1251.293" y2="1271.293"/><polygon fill="#181818" points="409.5,1261.293,413.5,1271.293,417.5,1261.293,413.5,1265.293" style="stroke:#181818;stroke-width:1.0;"/><line style="stroke:#181818;stroke-width:1.0;" x1="413.5" x2="413.5" y1="1305.2617" y2="1325.2617"/><polygon fill="#181818" points="409.5,1315.2617,413.5,1325.2617,417.5,1315.2617,413.5,1319.2617" style="stroke:#181818;stroke-width:1.0;"/><line style="stroke:#181818;stroke-width:1.0;" x1="413.5" x2="413.5" y1="1200.4961" y2="1249.793"/><polygon fill="#181818" points="409.5,1239.793,413.5,1249.793,417.5,1239.793,413.5,1243.793" style="stroke:#181818;stroke-width:1.0;"/><line style="stroke:#181818;stroke-width:1.0;" x1="413.5" x2="413.5" y1="1326.7617" y2="1365.543"/><polygon fill="#181818" points="409.5,1355.543,413.5,1365.543,417.5,1355.543,413.5,1359.543" style="stroke:#181818;stroke-width:1.0;"/><!--SRC=[dLJ1RXit4BtpAmPxaRI8vHJ8eLW7AHp7ZGitZIghfo0GgEL88aAHMv9hHNNyxvtXhhHQEG6Cw631ck7CUs_UpBVtCk8jOeN-cmXH-YWg-gEZTXPcMnqYgh57MKRduK4KbtO7DxFP1ARuRuqXmj_AInlXSl87b6vJoQWN1WKzbllC3nZNJi7m_VNinUJZtMmy7ey4ZbTZoBBpqXc39NSBvm_TFtChD_XuNZbjOyYo2_4eZd1TrI6wpHJlqGUSUFTrDyNWQbyYGrnXl5fheuQZ2tZzEihmvSqROLr4CBYC0kZJ4eFlbeXhsMH9OzmMwW3HmSOflTnH31Ef5DzBiC2bymWLLz5snKafNZfh6pfZWLO1On0fqb6vGQdGNrkgK28hpE7YseQQAWvkN8W3KbB1G5Rwx0lk1YbXdLu5aAaj1hHn34TiEUU4CGEdQcr326jN6mKR6SirR7LSfoocjqABNh8wX3aD04eo0F-WQa_y3fcbeJbGBI9-hqEYoQ4-rL0PtK3WZrx2CC-pZA5aMPu3VgL9XDz6ND32S8TXT4X64n26rdM_975UlNm5VxdukwkjkkY5o1LLzzhIn3e885TIsoT0Mbb_7iily8-LDJdSw__mUNXOe4wMnxwtfwwE9F8T-dlT-9acW6IEAivzOxXX-rti7NXiz5wnoqhVugvnLwzervw5q65-BurMy_t4dshmbFyFvd3WtF0zrRxNZiIVa_ZFxFOZfKywTkgo5aMxsqadbedahUhOkmXPHYLNsafJ9FanomHx8otqFBe2FbOifpIVKlWpkoLbC1pQFLtoUXImSCwa64MKqisRURki1RpJPVmKedz1a3qLEJeApxrj0UDKRfiT3iD1dhV-pVD1tmGTkobMHjBhEsbe-sLOyuawl1DaZRJCUTvUydTluQfTx4DnqPuuZsU-yMTwqyfwVDsAF4-WpoOo1Dgf3tmtDIgnFvPqInLzazfCjpUH8nLkwmLwYn730Sp34QVPeJVNOoW7y6AVlzN6q6c6XJJIbdIzbexlEHymVf2sYiRJQ-NiKgzgdw09MNeNmhwoTGJxz8xtZrjn-sk0_OuD_tHIlMrw-z75oUAJCvDj_mS0]--></g></svg>