<?xml version="1.0" encoding="us-ascii" standalone="no"?><svg xmlns="http://www.w3.org/2000/svg" xmlns:xlink="http://www.w3.org/1999/xlink" contentStyleType="text/css" height="898px" preserveAspectRatio="none" style="width:711px;height:898px;background:#FFFFFF;" version="1.1" viewBox="0 0 711 898" width="711px" zoomAndPan="magnify"><defs/><g><ellipse cx="394.5" cy="20" fill="#222222" rx="10" ry="10" style="stroke:#222222;stroke-width:1.0;"/><rect fill="none" height="96.2344" style="stroke:#000000;stroke-width:1.5;" width="236" x="276.5" y="40"/><path d="M337.5,40 L337.5,49.2969 L327.5,59.2969 L276.5,59.2969 " fill="none" style="stroke:#000000;stroke-width:1.5;"/><text fill="#000000" font-family="sans-serif" font-size="14" lengthAdjust="spacing" textLength="51" x="279.5" y="53.9951">FastAPI</text><rect fill="#F1F1F1" height="47.9375" rx="12.5" ry="12.5" style="stroke:#181818;stroke-width:0.5;" width="216" x="286.5" y="76.2969"/><text fill="#000000" font-family="sans-serif" font-size="12" lengthAdjust="spacing" textLength="49" x="296.5" y="97.4355">Request</text><text fill="#000000" font-family="monospace" font-size="12" lengthAdjust="spacing" textLength="196" x="296.5" y="111.4043">"/{account_id}/auth/api-keys</text><path d="M84,146.2344 L84,216.7656 A0,0 0 0 0 84,216.7656 L285,216.7656 A0,0 0 0 0 285,216.7656 L285,185.5 L305,181.5 L285,177.5 L285,156.2344 L275,146.2344 L84,146.2344 A0,0 0 0 0 84,146.2344 " fill="#FEFFDD" style="stroke:#181818;stroke-width:0.5;"/><path d="M275,146.2344 L275,156.2344 L285,156.2344 L275,146.2344 " fill="#FEFFDD" style="stroke:#181818;stroke-width:0.5;"/><text fill="#000000" font-family="sans-serif" font-size="13" lengthAdjust="spacing" textLength="164" x="90" y="163.3013">The Api-Key is generated</text><text fill="#000000" font-family="sans-serif" font-size="13" lengthAdjust="spacing" textLength="158" x="90" y="178.4341">per Qdrant DB Cluster, 1</text><text fill="#000000" font-family="sans-serif" font-size="13" lengthAdjust="spacing" textLength="180" x="90" y="193.5669">api-key grant access to one</text><text fill="#000000" font-family="sans-serif" font-size="13" lengthAdjust="spacing" textLength="48" x="90" y="208.6997">cluster.</text><polygon fill="#F1F1F1" points="305,164.5156,494,164.5156,484,181.5,494,198.4844,305,198.4844" style="stroke:#181818;stroke-width:0.5;"/><text fill="#000000" font-family="sans-serif" font-size="12" lengthAdjust="spacing" textLength="159" x="315" y="185.6543">CreateApiKeyBodyRequest</text><rect fill="none" height="82.2656" style="stroke:#000000;stroke-width:1.5;" width="170" x="309.5" y="227.5674"/><path d="M469.5,227.5674 L469.5,236.8643 L459.5,246.8643 L309.5,246.8643 " fill="none" style="stroke:#000000;stroke-width:1.5;"/><text fill="#000000" font-family="sans-serif" font-size="14" lengthAdjust="spacing" textLength="150" x="312.5" y="241.5625">DBaaSApiKeyService</text><rect fill="#F1F1F1" height="33.9688" style="stroke:#181818;stroke-width:0.5;" width="119" x="335" y="263.8643"/><text fill="#000000" font-family="sans-serif" font-size="12" lengthAdjust="spacing" textLength="99" x="345" y="285.0029">create_api_key()</text><path d="M125.5,319.833 L125.5,375.2314 A0,0 0 0 0 125.5,375.2314 L324.5,375.2314 A0,0 0 0 0 324.5,375.2314 L324.5,351.5322 L344.5,347.5322 L324.5,343.5322 L324.5,329.833 L314.5,319.833 L125.5,319.833 A0,0 0 0 0 125.5,319.833 " fill="#FEFFDD" style="stroke:#181818;stroke-width:0.5;"/><path d="M314.5,319.833 L314.5,329.833 L324.5,329.833 L314.5,319.833 " fill="#FEFFDD" style="stroke:#181818;stroke-width:0.5;"/><text fill="#000000" font-family="sans-serif" font-size="13" lengthAdjust="spacing" textLength="178" x="131.5" y="336.8999">Using the Qdrant Cluster ID</text><text fill="#000000" font-family="sans-serif" font-size="13" lengthAdjust="spacing" textLength="136" x="131.5" y="352.0327">generated during the</text><text fill="#000000" font-family="sans-serif" font-size="13" lengthAdjust="spacing" textLength="84" x="131.5" y="367.1655">provisioning.</text><polygon fill="#F1F1F1" points="344.5,330.5479,444.5,330.5479,454.5,347.5322,444.5,364.5166,344.5,364.5166" style="stroke:#181818;stroke-width:0.5;"/><text fill="#000000" font-family="sans-serif" font-size="12" lengthAdjust="spacing" textLength="80" x="354.5" y="351.6865">db_cluster_id</text><rect fill="none" height="96.6953" style="stroke:#000000;stroke-width:1.5;" width="389" x="99.5" y="385.2314"/><path d="M256.5,385.2314 L256.5,394.5283 L246.5,404.5283 L99.5,404.5283 " fill="none" style="stroke:#000000;stroke-width:1.5;"/><text fill="#000000" font-family="sans-serif" font-size="14" lengthAdjust="spacing" textLength="147" x="102.5" y="399.2266">DBClusterRepository</text><path d="M109.5,414.5283 L109.5,469.9268 A0,0 0 0 0 109.5,469.9268 L290.5,469.9268 A0,0 0 0 0 290.5,469.9268 L290.5,446.2275 L310.5,442.2275 L290.5,438.2275 L290.5,424.5283 L280.5,414.5283 L109.5,414.5283 A0,0 0 0 0 109.5,414.5283 " fill="#FEFFDD" style="stroke:#181818;stroke-width:0.5;"/><path d="M280.5,414.5283 L280.5,424.5283 L290.5,424.5283 L280.5,414.5283 " fill="#FEFFDD" style="stroke:#181818;stroke-width:0.5;"/><text fill="#000000" font-family="sans-serif" font-size="13" lengthAdjust="spacing" textLength="160" x="115.5" y="431.5952">Retrieve the information</text><text fill="#000000" font-family="sans-serif" font-size="13" lengthAdjust="spacing" textLength="154" x="115.5" y="446.728">for the given Qdrant DB</text><text fill="#000000" font-family="sans-serif" font-size="13" lengthAdjust="spacing" textLength="50" x="115.5" y="461.8608">Cluster.</text><rect fill="#F1F1F1" height="33.9688" style="stroke:#181818;stroke-width:0.5;" width="168" x="310.5" y="425.2432"/><line style="stroke:#181818;stroke-width:0.5;" x1="315.5" x2="315.5" y1="425.2432" y2="459.2119"/><line style="stroke:#181818;stroke-width:0.5;" x1="473.5" x2="473.5" y1="425.2432" y2="459.2119"/><text fill="#000000" font-family="sans-serif" font-size="12" lengthAdjust="spacing" textLength="148" x="320.5" y="446.3818">get_by_id(db_cluster_id)</text><path d="M10,491.9268 L10,607.8564 A0,0 0 0 0 10,607.8564 L335,607.8564 A0,0 0 0 0 335,607.8564 L335,553.8916 L355,549.8916 L335,545.8916 L335,501.9268 L325,491.9268 L10,491.9268 A0,0 0 0 0 10,491.9268 " fill="#FEFFDD" style="stroke:#181818;stroke-width:0.5;"/><path d="M325,491.9268 L325,501.9268 L335,501.9268 L325,491.9268 " fill="#FEFFDD" style="stroke:#181818;stroke-width:0.5;"/><text fill="#000000" font-family="monospace" font-size="13" lengthAdjust="spacing" textLength="120" x="16" y="508.9937">account_id:&#160;str</text><text fill="#000000" font-family="monospace" font-size="13" lengthAdjust="spacing" textLength="144" x="16" y="524.1265">db_cluster_id:&#160;str</text><text fill="#000000" font-family="monospace" font-size="13" font-weight="bold" lengthAdjust="spacing" textLength="184" x="16" y="539.2593">db_cluster_api_key:&#160;str</text><text fill="#000000" font-family="monospace" font-size="13" lengthAdjust="spacing" textLength="192" x="16" y="554.3921">db_cluster_endpoint:&#160;str</text><text fill="#000000" font-family="monospace" font-size="13" lengthAdjust="spacing" textLength="152" x="16" y="569.5249">cloud_provider:&#160;str</text><text fill="#000000" font-family="monospace" font-size="13" lengthAdjust="spacing" textLength="208" x="16" y="584.6577">cloud_provider_region:&#160;str</text><text fill="#000000" font-family="monospace" font-size="13" lengthAdjust="spacing" textLength="288" x="16" y="599.7905">cloud_provider_service_endpoint:&#160;str</text><text fill="#000000" font-family="sans-serif" font-size="13" lengthAdjust="spacing" textLength="16" x="304" y="599.7905">&#160;&#160;&#160;&#160;</text><polygon fill="#F1F1F1" points="355,532.9072,434,532.9072,444,549.8916,434,566.876,355,566.876" style="stroke:#181818;stroke-width:0.5;"/><text fill="#000000" font-family="sans-serif" font-size="12" lengthAdjust="spacing" textLength="59" x="365" y="554.0459">DBCluster</text><rect fill="none" height="111.8281" style="stroke:#000000;stroke-width:1.5;" width="462" x="53.5" y="617.8564"/><path d="M213.5,617.8564 L213.5,627.1533 L203.5,637.1533 L53.5,637.1533 " fill="none" style="stroke:#000000;stroke-width:1.5;"/><text fill="#000000" font-family="sans-serif" font-size="14" lengthAdjust="spacing" textLength="150" x="56.5" y="631.8516">DBaaSApiKeyService</text><path d="M63.5,647.1533 L63.5,717.6846 A0,0 0 0 0 63.5,717.6846 L263.5,717.6846 A0,0 0 0 0 263.5,717.6846 L263.5,686.4189 L283.5,682.4189 L263.5,678.4189 L263.5,657.1533 L253.5,647.1533 L63.5,647.1533 A0,0 0 0 0 63.5,647.1533 " fill="#FEFFDD" style="stroke:#181818;stroke-width:0.5;"/><path d="M253.5,647.1533 L253.5,657.1533 L263.5,657.1533 L253.5,647.1533 " fill="#FEFFDD" style="stroke:#181818;stroke-width:0.5;"/><text fill="#000000" font-family="sans-serif" font-size="13" lengthAdjust="spacing" textLength="163" x="69.5" y="664.2202">Using the Qdrant api-key</text><text fill="#000000" font-family="sans-serif" font-size="13" lengthAdjust="spacing" textLength="139" x="69.5" y="679.353">configured during the</text><text fill="#000000" font-family="sans-serif" font-size="13" lengthAdjust="spacing" textLength="163" x="69.5" y="694.4858">deployment as secret for</text><text fill="#000000" font-family="sans-serif" font-size="13" lengthAdjust="spacing" textLength="179" x="69.5" y="709.6187">the new derivative api-key.</text><rect fill="#F1F1F1" height="33.9688" style="stroke:#181818;stroke-width:0.5;" width="222" x="283.5" y="665.4346"/><text fill="#000000" font-family="sans-serif" font-size="12" lengthAdjust="spacing" textLength="202" x="293.5" y="686.5732">_generate_salt_hashing_api_key()</text><path d="M125.5,749.6846 L125.5,835.3486 L306.5,835.3486 L306.5,759.6846 L296.5,749.6846 L125.5,749.6846 " fill="#FEFFDD" style="stroke:#181818;stroke-width:0.5;"/><path d="M296.5,749.6846 L296.5,759.6846 L306.5,759.6846 L296.5,749.6846 " fill="#FEFFDD" style="stroke:#181818;stroke-width:0.5;"/><text fill="#000000" font-family="monospace" font-size="13" lengthAdjust="spacing" textLength="56" x="131.5" y="766.7515">id:&#160;str</text><text fill="#000000" font-family="monospace" font-size="13" lengthAdjust="spacing" textLength="120" x="131.5" y="781.8843">account_id:&#160;str</text><text fill="#000000" font-family="monospace" font-size="13" lengthAdjust="spacing" textLength="160" x="131.5" y="797.0171">created_at:&#160;datetime</text><text fill="#000000" font-family="monospace" font-size="13" lengthAdjust="spacing" textLength="144" x="131.5" y="812.1499">db_cluster_id:&#160;str</text><text fill="#000000" font-family="monospace" font-size="13" font-weight="bold" lengthAdjust="spacing" textLength="96" x="131.5" y="827.2827">api_key:&#160;str</text><text fill="#000000" font-family="sans-serif" font-size="13" lengthAdjust="spacing" textLength="16" x="227.5" y="827.2827">&#160;&#160;&#160;&#160;</text><path d="M492.5,772.3838 L492.5,812.6494 L689.5,812.6494 L689.5,782.3838 L679.5,772.3838 L492.5,772.3838 " fill="#FEFFDD" style="stroke:#181818;stroke-width:0.5;"/><path d="M679.5,772.3838 L679.5,782.3838 L689.5,782.3838 L679.5,772.3838 " fill="#FEFFDD" style="stroke:#181818;stroke-width:0.5;"/><text fill="#000000" font-family="sans-serif" font-size="13" lengthAdjust="spacing" textLength="176" x="498.5" y="789.4507">Generate the response and</text><text fill="#000000" font-family="sans-serif" font-size="13" lengthAdjust="spacing" textLength="172" x="498.5" y="804.5835">do not persist the API-key.</text><polygon fill="#F1F1F1" points="316.5,775.5322,472.5,775.5322,482.5,792.5166,472.5,809.501,316.5,809.501" style="stroke:#181818;stroke-width:0.5;"/><text fill="#000000" font-family="sans-serif" font-size="12" lengthAdjust="spacing" textLength="136" x="326.5" y="796.6709">CreateAPiKeyResponse</text><ellipse cx="394.5" cy="876.3486" fill="none" rx="11" ry="11" style="stroke:#222222;stroke-width:1.0;"/><ellipse cx="394.5" cy="876.3486" fill="#222222" rx="6" ry="6" style="stroke:#222222;stroke-width:1.0;"/><line style="stroke:#181818;stroke-width:1.0;" x1="394.5" x2="394.5" y1="30" y2="76.2969"/><polygon fill="#181818" points="390.5,66.2969,394.5,76.2969,398.5,66.2969,394.5,70.2969" style="stroke:#181818;stroke-width:1.0;"/><line style="stroke:#181818;stroke-width:1.0;" x1="394.5" x2="394.5" y1="124.2344" y2="164.5156"/><polygon fill="#181818" points="390.5,154.5156,394.5,164.5156,398.5,154.5156,394.5,158.5156" style="stroke:#181818;stroke-width:1.0;"/><line style="stroke:#181818;stroke-width:1.0;" x1="394.5" x2="394.5" y1="198.4844" y2="263.8643"/><polygon fill="#181818" points="390.5,253.8643,394.5,263.8643,398.5,253.8643,394.5,257.8643" style="stroke:#181818;stroke-width:1.0;"/><line style="stroke:#181818;stroke-width:1.0;" x1="394.5" x2="394.5" y1="297.833" y2="330.5479"/><polygon fill="#181818" points="390.5,320.5479,394.5,330.5479,398.5,320.5479,394.5,324.5479" style="stroke:#181818;stroke-width:1.0;"/><line style="stroke:#181818;stroke-width:1.0;" x1="394.5" x2="394.5" y1="364.5166" y2="425.2432"/><polygon fill="#181818" points="390.5,415.2432,394.5,425.2432,398.5,415.2432,394.5,419.2432" style="stroke:#181818;stroke-width:1.0;"/><line style="stroke:#181818;stroke-width:1.0;" x1="394.5" x2="394.5" y1="459.2119" y2="532.9072"/><polygon fill="#181818" points="390.5,522.9072,394.5,532.9072,398.5,522.9072,394.5,526.9072" style="stroke:#181818;stroke-width:1.0;"/><line style="stroke:#181818;stroke-width:1.0;" x1="394.5" x2="394.5" y1="566.876" y2="665.4346"/><polygon fill="#181818" points="390.5,655.4346,394.5,665.4346,398.5,655.4346,394.5,659.4346" style="stroke:#181818;stroke-width:1.0;"/><line style="stroke:#181818;stroke-width:1.0;" x1="394.5" x2="394.5" y1="699.4033" y2="775.5322"/><polygon fill="#181818" points="390.5,765.5322,394.5,775.5322,398.5,765.5322,394.5,769.5322" style="stroke:#181818;stroke-width:1.0;"/><line style="stroke:#181818;stroke-width:1.0;" x1="394.5" x2="394.5" y1="809.501" y2="865.3486"/><polygon fill="#181818" points="390.5,855.3486,394.5,865.3486,398.5,855.3486,394.5,859.3486" style="stroke:#181818;stroke-width:1.0;"/><!--SRC=[ZLHDRzim3BthLn0-TS7QODUqAD0as53ii2xTpe9giOxGHF94EeFHvh-FaftF9jjoC68-adgFZzRRj-Y2VrF49hAgvU5O0l3P4DyztCEh6itmLuF4gYYAuQifoz1uriwkXwRX-T3Kxl85MogAQxLMeqb4mtXNkw_OZeDj- -9hkBbnlcxuzbRvm0WBV6O5ylinHv3qIya7Hr2XnoWTR0PhZF3THkCPfcEOB1fYZ1_X4sIqFnggd23Ca0WuGF2OyRBBlv8Nz1RIkMfFudHip6F7z17ZofMOr9PPW9RUMdfVV4ZCsT2B45yhDR9Fkcyh8qXOQFYKh9_aV0Kiudh-FNcudsPygnDi4pUfdUOOLew4e4Ilr6dYVRCPre4SXzWcvXMoVcg5riK1oQn0cfOe9-4xeZFaw725cO3ppo4kJJebW_AMuvLReTyvaR79PhfRYca-MsvdPbCKkmqQ0N4i2eaT4Dw51uCze7SaeuF1SPcGg8Fpl2ik5w6nEa_JOZmNrn4hKNiMfcupZlkd0QZ_NogziLkJMR2U6vgBkoUNx1zhjDdvRi63VtQLkBg_HHcnM2z2kyHKGK0eMyt9pGocTXv_Ir9qAp5RpE_R7fdPVymFISqCgGwUyAol-yQTyhZxiAmsCaCh_zWjyU_c7pj-EFHyTdJLl9lKbtx2MLtioOBntKLYGofAzmavufmZjzkHPBa4Gwt-0000]--></g></svg>