<?xml version="1.0" encoding="us-ascii" standalone="no"?><svg xmlns="http://www.w3.org/2000/svg" xmlns:xlink="http://www.w3.org/1999/xlink" contentStyleType="text/css" height="877px" preserveAspectRatio="none" style="width:934px;height:877px;background:#FFFFFF;" version="1.1" viewBox="0 0 934 877" width="934px" zoomAndPan="magnify"><defs/><g><rect fill="none" height="20.9531" style="stroke:none;stroke-width:1.0;" width="901" x="15" y="12.7451"/><rect fill="#FFD700" height="852.8672" style="stroke:#FFD700;stroke-width:1.0;" width="143" x="15" y="12.7451"/><rect fill="#555555" height="6" rx="2.5" ry="2.5" style="stroke:#555555;stroke-width:1.0;" width="100" x="37.5" y="38.6982"/><rect fill="#F1F1F1" height="33.9688" style="stroke:#181818;stroke-width:0.5;" width="76" x="49.5" y="64.6982"/><line style="stroke:#181818;stroke-width:0.5;" x1="54.5" x2="54.5" y1="64.6982" y2="98.667"/><line style="stroke:#181818;stroke-width:0.5;" x1="120.5" x2="120.5" y1="64.6982" y2="98.667"/><text fill="#000000" font-family="sans-serif" font-size="12" lengthAdjust="spacing" textLength="56" x="59.5" y="85.8369">retrieve()</text><rect fill="#555555" height="6" rx="2.5" ry="2.5" style="stroke:#555555;stroke-width:1.0;" width="100" x="37.5" y="118.667"/><line style="stroke:#000000;stroke-width:1.5;" x1="15" x2="15" y1="12.7451" y2="865.6123"/><rect fill="none" height="88.4141" style="stroke:#000000;stroke-width:1.5;" width="260" x="256.5" y="134.667"/><path d="M458.5,134.667 L458.5,143.9639 L448.5,153.9639 L256.5,153.9639 " fill="none" style="stroke:#000000;stroke-width:1.5;"/><text fill="#000000" font-family="sans-serif" font-size="14" lengthAdjust="spacing" textLength="192" x="259.5" y="148.6621">ProvisionDBClusterHandler</text><path d="M266.5,170.8154 L266.5,211.0811 A0,0 0 0 0 266.5,211.0811 L415.5,211.0811 A0,0 0 0 0 415.5,211.0811 L415.5,194.9482 L435.5,190.9482 L415.5,186.9482 L415.5,180.8154 L405.5,170.8154 L266.5,170.8154 A0,0 0 0 0 266.5,170.8154 " fill="#FEFFDD" style="stroke:#181818;stroke-width:0.5;"/><path d="M405.5,170.8154 L405.5,180.8154 L415.5,180.8154 L405.5,170.8154 " fill="#FEFFDD" style="stroke:#181818;stroke-width:0.5;"/><text fill="#000000" font-family="sans-serif" font-size="13" lengthAdjust="spacing" textLength="128" x="272.5" y="187.8823">Process Commands</text><text fill="#000000" font-family="sans-serif" font-size="13" lengthAdjust="spacing" textLength="78" x="272.5" y="203.0151">One-by-One</text><rect fill="#F1F1F1" height="33.9688" style="stroke:#181818;stroke-width:0.5;" width="71" x="435.5" y="173.9639"/><text fill="#000000" font-family="sans-serif" font-size="12" lengthAdjust="spacing" textLength="51" x="445.5" y="195.1025">handle()</text><rect fill="none" height="88.4141" style="stroke:#000000;stroke-width:1.5;" width="359" x="164" y="233.0811"/><path d="M347,233.0811 L347,242.3779 L337,252.3779 L164,252.3779 " fill="none" style="stroke:#000000;stroke-width:1.5;"/><text fill="#000000" font-family="sans-serif" font-size="14" lengthAdjust="spacing" textLength="173" x="167" y="247.0762">DBClusterApiKeyService</text><path d="M174,269.2295 L174,309.4951 A0,0 0 0 0 174,309.4951 L409,309.4951 A0,0 0 0 0 409,309.4951 L409,293.3623 L429,289.3623 L409,285.3623 L409,279.2295 L399,269.2295 L174,269.2295 A0,0 0 0 0 174,269.2295 " fill="#FEFFDD" style="stroke:#181818;stroke-width:0.5;"/><path d="M399,269.2295 L399,279.2295 L409,279.2295 L399,269.2295 " fill="#FEFFDD" style="stroke:#181818;stroke-width:0.5;"/><text fill="#000000" font-family="sans-serif" font-size="13" lengthAdjust="spacing" textLength="214" x="180" y="286.2964">Generate a 32 Characters Qdrant</text><text fill="#000000" font-family="sans-serif" font-size="13" lengthAdjust="spacing" textLength="130" x="180" y="301.4292">api-key compatible.</text><rect fill="#F1F1F1" height="33.9688" style="stroke:#181818;stroke-width:0.5;" width="84" x="429" y="272.3779"/><text fill="#000000" font-family="sans-serif" font-size="12" lengthAdjust="spacing" textLength="64" x="439" y="293.5166">generate()</text><path d="M200.5,331.4951 L200.5,402.0264 A0,0 0 0 0 200.5,402.0264 L393.5,402.0264 A0,0 0 0 0 393.5,402.0264 L393.5,370.7607 L413.5,366.7607 L393.5,362.7607 L393.5,341.4951 L383.5,331.4951 L200.5,331.4951 A0,0 0 0 0 200.5,331.4951 " fill="#FEFFDD" style="stroke:#181818;stroke-width:0.5;"/><path d="M383.5,331.4951 L383.5,341.4951 L393.5,341.4951 L383.5,331.4951 " fill="#FEFFDD" style="stroke:#181818;stroke-width:0.5;"/><text fill="#000000" font-family="sans-serif" font-size="13" lengthAdjust="spacing" textLength="172" x="206.5" y="348.562">Model Containing the total</text><text fill="#000000" font-family="sans-serif" font-size="13" lengthAdjust="spacing" textLength="134" x="206.5" y="363.6948">amount of resources</text><text fill="#000000" font-family="sans-serif" font-size="13" lengthAdjust="spacing" textLength="112" x="206.5" y="378.8276">requested for the</text><text fill="#000000" font-family="sans-serif" font-size="13" lengthAdjust="spacing" textLength="84" x="206.5" y="393.9604">provisioning.</text><polygon fill="#F1F1F1" points="413.5,349.7764,538.5,349.7764,528.5,366.7607,538.5,383.7451,413.5,383.7451" style="stroke:#181818;stroke-width:0.5;"/><text fill="#000000" font-family="sans-serif" font-size="12" lengthAdjust="spacing" textLength="95" x="423.5" y="370.915">DBClusterSpecs</text><rect fill="none" height="126.9609" style="stroke:#000000;stroke-width:1.5;" width="297" x="226" y="412.0264"/><path d="M412,412.0264 L412,421.3232 L402,431.3232 L226,431.3232 " fill="none" style="stroke:#000000;stroke-width:1.5;"/><text fill="#000000" font-family="sans-serif" font-size="14" lengthAdjust="spacing" textLength="176" x="229" y="426.0215">HelmInfrastructureClient</text><path d="M236,441.3232 L236,526.9873 A0,0 0 0 0 236,526.9873 L409,526.9873 A0,0 0 0 0 409,526.9873 L409,488.1553 L429,484.1553 L409,480.1553 L409,451.3232 L399,441.3232 L236,441.3232 A0,0 0 0 0 236,441.3232 " fill="#FEFFDD" style="stroke:#181818;stroke-width:0.5;"/><path d="M399,441.3232 L399,451.3232 L409,451.3232 L399,441.3232 " fill="#FEFFDD" style="stroke:#181818;stroke-width:0.5;"/><text fill="#000000" font-family="sans-serif" font-size="13" lengthAdjust="spacing" textLength="152" x="242" y="458.3901">Based on Cluster Specs</text><text fill="#000000" font-family="sans-serif" font-size="13" lengthAdjust="spacing" textLength="132" x="242" y="473.5229">Generate a dynamic</text><text fill="#000000" font-family="sans-serif" font-size="13" lengthAdjust="spacing" textLength="152" x="242" y="488.6558">values.yaml and install</text><text fill="#000000" font-family="sans-serif" font-size="13" lengthAdjust="spacing" textLength="118" x="242" y="503.7886">the official Qdrant</text><text fill="#000000" font-family="sans-serif" font-size="13" lengthAdjust="spacing" textLength="35" x="242" y="518.9214">Chart</text><rect fill="#F1F1F1" height="33.9688" style="stroke:#181818;stroke-width:0.5;" width="84" x="429" y="467.1709"/><text fill="#000000" font-family="sans-serif" font-size="12" lengthAdjust="spacing" textLength="64" x="439" y="488.3096">provision()</text><rect fill="none" height="111.8281" style="stroke:#000000;stroke-width:1.5;" width="385" x="177" y="548.9873"/><path d="M415,548.9873 L415,558.2842 L405,568.2842 L177,568.2842 " fill="none" style="stroke:#000000;stroke-width:1.5;"/><text fill="#000000" font-family="sans-serif" font-size="14" lengthAdjust="spacing" textLength="228" x="180" y="562.9824">K8sNetworkingDiscoveryService</text><path d="M187,578.2842 L187,648.8154 A0,0 0 0 0 187,648.8154 L370,648.8154 A0,0 0 0 0 370,648.8154 L370,617.5498 L390,613.5498 L370,609.5498 L370,588.2842 L360,578.2842 L187,578.2842 A0,0 0 0 0 187,578.2842 " fill="#FEFFDD" style="stroke:#181818;stroke-width:0.5;"/><path d="M360,578.2842 L360,588.2842 L370,588.2842 L360,578.2842 " fill="#FEFFDD" style="stroke:#181818;stroke-width:0.5;"/><text fill="#000000" font-family="sans-serif" font-size="13" lengthAdjust="spacing" textLength="162" x="193" y="595.3511">Discover the K8s Service</text><text fill="#000000" font-family="sans-serif" font-size="13" lengthAdjust="spacing" textLength="148" x="193" y="610.4839">used for the generated</text><text fill="#000000" font-family="sans-serif" font-size="13" lengthAdjust="spacing" textLength="124" x="193" y="625.6167">Qdrant Stateful Set</text><text fill="#000000" font-family="sans-serif" font-size="13" lengthAdjust="spacing" textLength="92" x="193" y="640.7495">just deployed.</text><rect fill="#F1F1F1" height="33.9688" style="stroke:#181818;stroke-width:0.5;" width="162" x="390" y="596.5654"/><text fill="#000000" font-family="sans-serif" font-size="12" lengthAdjust="spacing" textLength="142" x="400" y="617.7041">get_service_cluster_ip()</text><line style="stroke:#000000;stroke-width:1.5;" x1="158" x2="158" y1="12.7451" y2="865.6123"/><rect fill="#90EE90" height="852.8672" style="stroke:#90EE90;stroke-width:1.0;" width="348" x="566" y="12.7451"/><rect fill="#555555" height="6" rx="2.5" ry="2.5" style="stroke:#555555;stroke-width:1.0;" width="338" x="572" y="680.8154"/><path d="M584,696.8154 L584,797.6123 A0,0 0 0 0 584,797.6123 L768,797.6123 A0,0 0 0 0 768,797.6123 L768,751.2139 L788,747.2139 L768,743.2139 L768,706.8154 L758,696.8154 L584,696.8154 A0,0 0 0 0 584,696.8154 " fill="#FEFFDD" style="stroke:#181818;stroke-width:0.5;"/><path d="M758,696.8154 L758,706.8154 L768,706.8154 L758,696.8154 " fill="#FEFFDD" style="stroke:#181818;stroke-width:0.5;"/><text fill="#000000" font-family="sans-serif" font-size="13" lengthAdjust="spacing" textLength="114" x="590" y="713.8823">Persist the model</text><text fill="#000000" font-family="sans-serif" font-size="13" lengthAdjust="spacing" textLength="158" x="590" y="729.0151">DBCluster, that contains</text><text fill="#000000" font-family="sans-serif" font-size="13" lengthAdjust="spacing" textLength="155" x="590" y="744.1479">deployment details, the</text><text fill="#000000" font-family="sans-serif" font-size="13" lengthAdjust="spacing" textLength="163" x="590" y="759.2808">endpoint and the api-key</text><text fill="#000000" font-family="sans-serif" font-size="13" lengthAdjust="spacing" textLength="158" x="590" y="774.4136">for a provisioned Qdrant</text><text fill="#000000" font-family="sans-serif" font-size="13" lengthAdjust="spacing" textLength="50" x="590" y="789.5464">Cluster.</text><polygon fill="#F1F1F1" points="798,730.2295,898,730.2295,888,764.1982,788,764.1982" style="stroke:#181818;stroke-width:0.5;"/><text fill="#000000" font-family="sans-serif" font-size="12" lengthAdjust="spacing" textLength="90" x="798" y="751.3682">save DBCluster</text><rect fill="#555555" height="6" rx="2.5" ry="2.5" style="stroke:#555555;stroke-width:1.0;" width="338" x="572" y="817.6123"/><ellipse cx="741" cy="854.6123" fill="none" rx="11" ry="11" style="stroke:#222222;stroke-width:1.0;"/><ellipse cx="741" cy="854.6123" fill="#222222" rx="6" ry="6" style="stroke:#222222;stroke-width:1.0;"/><line style="stroke:#000000;stroke-width:1.5;" x1="566" x2="566" y1="12.7451" y2="865.6123"/><line style="stroke:#000000;stroke-width:1.5;" x1="914" x2="914" y1="12.7451" y2="865.6123"/><line style="stroke:#181818;stroke-width:1.0;" x1="87.5" x2="87.5" y1="44.6982" y2="64.6982"/><polygon fill="#181818" points="83.5,54.6982,87.5,64.6982,91.5,54.6982,87.5,58.6982" style="stroke:#181818;stroke-width:1.0;"/><line style="stroke:#181818;stroke-width:1.0;" x1="87.5" x2="87.5" y1="98.667" y2="118.667"/><polygon fill="#181818" points="83.5,108.667,87.5,118.667,91.5,108.667,87.5,112.667" style="stroke:#181818;stroke-width:1.0;"/><line style="stroke:#181818;stroke-width:1.0;" x1="471" x2="471" y1="207.9326" y2="272.3779"/><polygon fill="#181818" points="467,262.3779,471,272.3779,475,262.3779,471,266.3779" style="stroke:#181818;stroke-width:1.0;"/><line style="stroke:#181818;stroke-width:1.0;" x1="471" x2="471" y1="306.3467" y2="349.7764"/><polygon fill="#181818" points="467,339.7764,471,349.7764,475,339.7764,471,343.7764" style="stroke:#181818;stroke-width:1.0;"/><line style="stroke:#181818;stroke-width:1.0;" x1="471" x2="471" y1="383.7451" y2="467.1709"/><polygon fill="#181818" points="467,457.1709,471,467.1709,475,457.1709,471,461.1709" style="stroke:#181818;stroke-width:1.0;"/><line style="stroke:#181818;stroke-width:1.0;" x1="471" x2="471" y1="501.1396" y2="596.5654"/><polygon fill="#181818" points="467,586.5654,471,596.5654,475,586.5654,471,590.5654" style="stroke:#181818;stroke-width:1.0;"/><line style="stroke:#181818;stroke-width:1.0;" x1="843" x2="843" y1="686.8154" y2="730.2295"/><polygon fill="#181818" points="839,720.2295,843,730.2295,847,720.2295,843,724.2295" style="stroke:#181818;stroke-width:1.0;"/><line style="stroke:#181818;stroke-width:1.0;" x1="843" x2="843" y1="764.1982" y2="817.6123"/><polygon fill="#181818" points="839,807.6123,843,817.6123,847,807.6123,843,811.6123" style="stroke:#181818;stroke-width:1.0;"/><line style="stroke:#181818;stroke-width:1.0;" x1="741" x2="741" y1="823.6123" y2="843.6123"/><polygon fill="#181818" points="737,833.6123,741,843.6123,745,833.6123,741,837.6123" style="stroke:#181818;stroke-width:1.0;"/><line style="stroke:#181818;stroke-width:1.0;" x1="87.5" x2="87.5" y1="124.667" y2="136.8896"/><line style="stroke:#181818;stroke-width:1.0;" x1="87.5" x2="471" y1="136.8896" y2="136.8896"/><line style="stroke:#181818;stroke-width:1.0;" x1="471" x2="471" y1="136.8896" y2="173.9639"/><polygon fill="#181818" points="467,163.9639,471,173.9639,475,163.9639,471,167.9639" style="stroke:#181818;stroke-width:1.0;"/><line style="stroke:#181818;stroke-width:1.0;" x1="471" x2="471" y1="630.5342" y2="659.1748"/><line style="stroke:#181818;stroke-width:1.0;" x1="471" x2="741" y1="659.1748" y2="659.1748"/><line style="stroke:#181818;stroke-width:1.0;" x1="741" x2="741" y1="659.1748" y2="680.8154"/><polygon fill="#181818" points="737,670.8154,741,680.8154,745,670.8154,741,674.8154" style="stroke:#181818;stroke-width:1.0;"/><text fill="#000000" font-family="sans-serif" font-size="18" lengthAdjust="spacing" textLength="131" x="24" y="29.4531">Command Bus</text><text fill="#000000" font-family="sans-serif" font-size="18" lengthAdjust="spacing" textLength="62" x="331" y="29.4531">Nebula</text><text fill="#000000" font-family="sans-serif" font-size="18" lengthAdjust="spacing" textLength="102" x="692" y="29.4531">Persistence</text><!--SRC=[VLJDZjem4BxdAKRQIoijUsWl5LsjL5YfMwswfU81a8aduEBOhZrE5JLzzuvj0g6hmeKmzdm_CryORdPMom47MDgs5KR28eQgiVvGpJsILzZXcxSVuVxUULkZZ1uV7YeqCb-fXXVSHYs6oWbFYfGriFAsKu6V7XTB7GEXVs9OZHv-L_DzVYo09CA1iOmb18qDLS2VLM89OLGJSl6RmTcsd_5NOeRKKVsf9fmdgazEFME_Hj-f6XFX3WrwGTSeFn-lW83txs2v5rxK31NWk_J2b3l2gTa1UwXjwmIfhSQx2odpauArmpeaBcLSf5TaNwr4pUuC2MMKsG7j4SYIq8MdjT4Gs0Oy1XizpoBNFVwCoF0IUEwf9rVTE6e6ckYP3EO9TVl5D5u4yh4ctjvIAsG67isf-yfi5Y8m9mCTtK6sz-_OP6z4g-fSxeHcfNUzQ3MaE2aJs5nnbxpQfb6r4dewtJHp-izgdp-45wHVd3Os-QX2RJlqbnkcJIW_DtLHkL7kYgSH9CjXU3Y2vSCOpZE6CJmo7nN1i2QkD55pMy7xmPmWqMdRexoCnN2ZrMvFEuze1Z70YcEbMA5Xjl82pOFey9pV93fLNhyNfJFBQbE6YfMnxvOF174ySwxAWegaDcrR8fTrk3qbXqKwg_WahIXX7WEU3vDzSGuN3sIwgq8uyJd-6GIoxYy0]--></g></svg>