<?xml version="1.0" encoding="us-ascii" standalone="no"?><svg xmlns="http://www.w3.org/2000/svg" xmlns:xlink="http://www.w3.org/1999/xlink" contentStyleType="text/css" height="982px" preserveAspectRatio="none" style="width:1793px;height:982px;background:#FFFFFF;" version="1.1" viewBox="0 0 1793 982" width="1793px" zoomAndPan="magnify"><defs/><g><!--cluster Shared Kernel (Nexus)--><g id="cluster_Shared Kernel (Nexus)"><polygon fill="none" points="911,466,921,456,1202,456,1202,716,1192,726,911,726,911,466" style="stroke:#181818;stroke-width:1.0;"/><line style="stroke:#181818;stroke-width:1.0;" x1="1192" x2="1202" y1="466" y2="456"/><line style="stroke:#181818;stroke-width:1.0;" x1="911" x2="1192" y1="466" y2="466"/><line style="stroke:#181818;stroke-width:1.0;" x1="1192" x2="1192" y1="466" y2="726"/><text fill="#000000" font-family="sans-serif" font-size="14" font-weight="bold" lengthAdjust="spacing" textLength="180" x="962.5" y="481.9951">Shared Kernel (Nexus)</text></g><!--cluster Control Plane API (Orion)--><g id="cluster_Control Plane API (Orion)"><polygon fill="none" points="16,16,26,6,773,6,773,377,763,387,16,387,16,16" style="stroke:#181818;stroke-width:1.0;"/><line style="stroke:#181818;stroke-width:1.0;" x1="763" x2="773" y1="16" y2="6"/><line style="stroke:#181818;stroke-width:1.0;" x1="16" x2="763" y1="16" y2="16"/><line style="stroke:#181818;stroke-width:1.0;" x1="763" x2="763" y1="16" y2="387"/><text fill="#000000" font-family="sans-serif" font-size="14" font-weight="bold" lengthAdjust="spacing" textLength="200" x="290.5" y="31.9951">Control Plane API (Orion)</text></g><!--cluster FastAPI Endpoints--><g id="cluster_FastAPI Endpoints"><rect fill="none" height="158" rx="2.5" ry="2.5" style="stroke:#181818;stroke-width:1.0;" width="200" x="89.5" y="189"/><text fill="#000000" font-family="sans-serif" font-size="14" font-weight="bold" lengthAdjust="spacing" textLength="145" x="117" y="203.9951">FastAPI Endpoints</text></g><!--cluster AuthZ--><g id="cluster_AuthZ"><rect fill="none" height="103" rx="2.5" ry="2.5" style="stroke:#181818;stroke-width:1.0;" width="693" x="48" y="62"/><text fill="#000000" font-family="sans-serif" font-size="14" font-weight="bold" lengthAdjust="spacing" textLength="48" x="370.5" y="76.9951">AuthZ</text></g><!--cluster Asyncronous Executor (Nebula)--><g id="cluster_Asyncronous Executor (Nebula)"><polygon fill="none" points="434,705,444,695,760,695,760,955,750,965,434,965,434,705" style="stroke:#181818;stroke-width:1.0;"/><line style="stroke:#181818;stroke-width:1.0;" x1="750" x2="760" y1="705" y2="695"/><line style="stroke:#181818;stroke-width:1.0;" x1="434" x2="750" y1="705" y2="705"/><line style="stroke:#181818;stroke-width:1.0;" x1="750" x2="750" y1="705" y2="965"/><text fill="#000000" font-family="sans-serif" font-size="14" font-weight="bold" lengthAdjust="spacing" textLength="250" x="468" y="720.9951">Asyncronous Executor (Nebula)</text></g><!--cluster Cloud Infrastructure Provisioner (Draftsman)--><g id="cluster_Cloud Infrastructure Provisioner (Draftsman)"><polygon fill="none" points="1343,494,1353,484,1776,484,1776,708,1766,718,1343,718,1343,494" style="stroke:#181818;stroke-width:1.0;"/><line style="stroke:#181818;stroke-width:1.0;" x1="1766" x2="1776" y1="494" y2="484"/><line style="stroke:#181818;stroke-width:1.0;" x1="1343" x2="1766" y1="494" y2="494"/><line style="stroke:#181818;stroke-width:1.0;" x1="1766" x2="1766" y1="494" y2="718"/><text fill="#000000" font-family="sans-serif" font-size="14" font-weight="bold" lengthAdjust="spacing" textLength="357" x="1377" y="509.9951">Cloud Infrastructure Provisioner (Draftsman)</text></g><!--cluster Cluster Gateway (Gatekeeper)--><g id="cluster_Cluster Gateway (Gatekeeper)"><polygon fill="none" points="440,466,450,456,755,456,755,645,745,655,440,655,440,466" style="stroke:#181818;stroke-width:1.0;"/><line style="stroke:#181818;stroke-width:1.0;" x1="745" x2="755" y1="466" y2="456"/><line style="stroke:#181818;stroke-width:1.0;" x1="440" x2="745" y1="466" y2="466"/><line style="stroke:#181818;stroke-width:1.0;" x1="745" x2="745" y1="466" y2="655"/><text fill="#000000" font-family="sans-serif" font-size="14" font-weight="bold" lengthAdjust="spacing" textLength="240" x="473.5" y="481.9951">Cluster Gateway (Gatekeeper)</text></g><!--entity Common Models--><g id="elem_Common Models"><rect fill="#F1F1F1" height="36.2969" rx="2.5" ry="2.5" style="stroke:#181818;stroke-width:0.5;" width="139" x="987" y="665.85"/><text fill="#000000" font-family="sans-serif" font-size="14" lengthAdjust="spacing" textLength="119" x="997" y="688.8451">Common Models</text></g><!--entity Command Bus--><g id="elem_Command Bus"><rect fill="#F1F1F1" height="36.2969" rx="2.5" ry="2.5" style="stroke:#181818;stroke-width:0.5;" width="124" x="994.5" y="594.85"/><text fill="#000000" font-family="sans-serif" font-size="14" lengthAdjust="spacing" textLength="104" x="1004.5" y="617.8451">Command Bus</text></g><!--entity Cloud Providers Resource Maps--><g id="elem_Cloud Providers Resource Maps"><rect fill="#F1F1F1" height="36.2969" rx="2.5" ry="2.5" style="stroke:#181818;stroke-width:0.5;" width="243" x="935" y="523.85"/><text fill="#000000" font-family="sans-serif" font-size="14" lengthAdjust="spacing" textLength="223" x="945" y="546.8451">Cloud Providers Resource Maps</text></g><!--entity Async Create Cluster--><g id="elem_Async Create Cluster"><rect fill="#F1F1F1" height="36.2969" rx="2.5" ry="2.5" style="stroke:#181818;stroke-width:0.5;" width="168" x="105.5" y="294.85"/><text fill="#000000" font-family="sans-serif" font-size="14" lengthAdjust="spacing" textLength="148" x="115.5" y="317.8451">Async Create Cluster</text></g><!--entity Create Api Key--><g id="elem_Create Api Key"><rect fill="#F1F1F1" height="36.2969" rx="2.5" ry="2.5" style="stroke:#181818;stroke-width:0.5;" width="125" x="127" y="223.85"/><text fill="#000000" font-family="sans-serif" font-size="14" lengthAdjust="spacing" textLength="105" x="137" y="246.8451">Create Api Key</text></g><!--entity Qdrant api-key Secure Generator--><g id="elem_Qdrant api-key Secure Generator"><rect fill="#F1F1F1" height="36.2969" rx="2.5" ry="2.5" style="stroke:#181818;stroke-width:0.5;" width="256" x="469" y="96.85"/><text fill="#000000" font-family="sans-serif" font-size="14" lengthAdjust="spacing" textLength="236" x="479" y="119.8451">Qdrant api-key Secure Generator</text></g><!--entity Salt Hashing Api-Keys Generator--><g id="elem_Salt Hashing Api-Keys Generator"><rect fill="#F1F1F1" height="36.2969" rx="2.5" ry="2.5" style="stroke:#181818;stroke-width:0.5;" width="251" x="64" y="104.85"/><text fill="#000000" font-family="sans-serif" font-size="14" lengthAdjust="spacing" textLength="231" x="74" y="127.8451">Salt Hashing Api-Keys Generator</text></g><!--entity Kubernetes Service Discovery--><g id="elem_Kubernetes Service Discovery"><rect fill="#F1F1F1" height="36.2969" rx="2.5" ry="2.5" style="stroke:#181818;stroke-width:0.5;" width="232" x="481" y="904.85"/><text fill="#000000" font-family="sans-serif" font-size="14" lengthAdjust="spacing" textLength="212" x="491" y="927.8451">Kubernetes Service Discovery</text></g><!--entity Commands Consumer--><g id="elem_Commands Consumer"><rect fill="#F1F1F1" height="36.2969" rx="2.5" ry="2.5" style="stroke:#181818;stroke-width:0.5;" width="178" x="508" y="833.85"/><text fill="#000000" font-family="sans-serif" font-size="14" lengthAdjust="spacing" textLength="158" x="518" y="856.8451">Commands Consumer</text></g><!--entity Helm Chart Manager--><g id="elem_Helm Chart Manager"><rect fill="#F1F1F1" height="36.2969" rx="2.5" ry="2.5" style="stroke:#181818;stroke-width:0.5;" width="168" x="513" y="762.85"/><text fill="#000000" font-family="sans-serif" font-size="14" lengthAdjust="spacing" textLength="148" x="523" y="785.8451">Helm Chart Manager</text></g><!--entity IaaC Tools--><g id="elem_IaaC Tools"><rect fill="#F1F1F1" height="36.2969" rx="2.5" ry="2.5" style="stroke:#181818;stroke-width:0.5;" width="94" x="1512" y="665.85"/><text fill="#000000" font-family="sans-serif" font-size="14" lengthAdjust="spacing" textLength="74" x="1522" y="688.8451">IaaC Tools</text></g><!--entity Custom Scripts--><g id="elem_Custom Scripts"><rect fill="#F1F1F1" height="36.2969" rx="2.5" ry="2.5" style="stroke:#181818;stroke-width:0.5;" width="126" x="1496" y="594.85"/><text fill="#000000" font-family="sans-serif" font-size="14" lengthAdjust="spacing" textLength="106" x="1506" y="617.8451">Custom Scripts</text></g><!--entity Cloud Providers Resource Maps Generator--><g id="elem_Cloud Providers Resource Maps Generator"><rect fill="#F1F1F1" height="36.2969" rx="2.5" ry="2.5" style="stroke:#181818;stroke-width:0.5;" width="320" x="1399" y="523.85"/><text fill="#000000" font-family="sans-serif" font-size="14" lengthAdjust="spacing" textLength="300" x="1409" y="546.8451">Cloud Providers Resource Maps Generator</text></g><!--entity Salt Hashing Api-Keys Enforcing--><g id="elem_Salt Hashing Api-Keys Enforcing"><rect fill="#F1F1F1" height="36.2969" rx="2.5" ry="2.5" style="stroke:#181818;stroke-width:0.5;" width="246" x="474" y="594.85"/><text fill="#000000" font-family="sans-serif" font-size="14" lengthAdjust="spacing" textLength="226" x="484" y="617.8451">Salt Hashing Api-Keys Enforcing</text></g><!--entity Multi-tenant Reverse Proxy--><g id="elem_Multi-tenant Reverse Proxy"><rect fill="#F1F1F1" height="36.2969" rx="2.5" ry="2.5" style="stroke:#181818;stroke-width:0.5;" width="210" x="492" y="523.85"/><text fill="#000000" font-family="sans-serif" font-size="14" lengthAdjust="spacing" textLength="190" x="502" y="546.8451">Multi-tenant Reverse Proxy</text></g><!--reverse link Control Plane API (Orion) to Shared Kernel (Nexus)--><g id="link_Control Plane API (Orion)_Shared Kernel (Nexus)"><path codeLine="59" d="M280.8027,388.4366 C283.3573,388.7075 275.936,387.9218 278.591,388.204 C289.211,389.3331 300.6219,390.5526 312.7283,391.8547 C336.9411,394.4589 363.9356,397.3937 392.9475,400.5975 C508.995,413.4125 657.32,430.53 789,448 C818.22,451.875 849.1981,456.265 879.2994,460.6819 C886.8247,461.7861 894.2952,462.892 901.6697,463.9919 C903.5134,464.2669 905.351,464.5415 907.182,464.8157 C908.0975,464.9527 909.0113,465.0897 909.9234,465.2265 " fill="none" id="Control Plane API (Orion)-backto-Shared Kernel (Nexus)" style="stroke:#181818;stroke-width:1.0;"/><polygon fill="#181818" points="268.8695,387.1722,274.4146,391.7822,280.8027,388.4366,275.2575,383.8267,268.8695,387.1722" style="stroke:#181818;stroke-width:1.0;"/><text fill="#000000" font-family="sans-serif" font-size="13" lengthAdjust="spacing" textLength="88" x="553" y="400.0669">Tight coupled</text></g><!--reverse link Asyncronous Executor (Nebula) to Shared Kernel (Nexus)--><g id="link_Asyncronous Executor (Nebula)_Shared Kernel (Nexus)"><path codeLine="60" d="M713.0443,690.374 C715.6526,689.2895 711.0597,691.0924 713.6821,689.9516 C718.9271,687.6701 724.1908,685.2756 729.4352,682.7661 C750.4125,672.7281 771.08,660.85 789,647 C819.74,623.25 861.32,527.36 895,508 C898.8344,505.7963 902.8045,503.788 906.879,501.9594 C907.8977,501.5023 908.9228,501.0564 909.9541,500.6215 C910.2119,500.5128 910.47,500.4047 910.7286,500.2974 " fill="none" id="Asyncronous Executor (Nebula)-backto-Shared Kernel (Nexus)" style="stroke:#181818;stroke-width:1.0;"/><polygon fill="#181818" points="701.9286,694.8953,708.9935,696.3399,713.0443,690.374,705.9793,688.9294,701.9286,694.8953" style="stroke:#181818;stroke-width:1.0;"/><text fill="#000000" font-family="sans-serif" font-size="13" lengthAdjust="spacing" textLength="88" x="798" y="511.0669">Tight coupled</text></g><!--reverse link Cluster Gateway (Gatekeeper) to Shared Kernel (Nexus)--><g id="link_Cluster Gateway (Gatekeeper)_Shared Kernel (Nexus)"><path codeLine="61" d="M768.5441,488 C770.2331,488 762.4569,488 764.1563,488 C770.9539,488 777.8314,488 784.7621,488 C798.6236,488 812.6981,488 826.7725,488 C854.9213,488 883.0695,488 909.5124,488 C909.9256,488 910.3383,488 910.7507,488 " fill="none" id="Cluster Gateway (Gatekeeper)-backto-Shared Kernel (Nexus)" style="stroke:#181818;stroke-width:1.0;"/><polygon fill="#181818" points="756.5441,488,762.5441,492,768.5441,488,762.5441,484,756.5441,488" style="stroke:#181818;stroke-width:1.0;"/><text fill="#000000" font-family="sans-serif" font-size="13" lengthAdjust="spacing" textLength="88" x="798" y="484.0669">Tight coupled</text></g><!--reverse link Salt Hashing Api-Keys Generator to Qdrant api-key Secure Generator--><g id="link_Salt Hashing Api-Keys Generator_Qdrant api-key Secure Generator"><path codeLine="63" d="M327.4677,120.2932 C376.1077,119.3332 419.78,118.48 468.64,117.51 " fill="none" id="Salt Hashing Api-Keys Generator-backto-Qdrant api-key Secure Generator" style="stroke:#181818;stroke-width:1.0;"/><polygon fill="#181818" points="315.47,120.53,321.5478,124.4108,327.4677,120.2932,321.3899,116.4124,315.47,120.53" style="stroke:#181818;stroke-width:1.0;"/><text fill="#000000" font-family="sans-serif" font-size="13" lengthAdjust="spacing" textLength="64" x="346" y="115.0669">Derivated</text></g><!--link Salt Hashing Api-Keys Generator to Salt Hashing Api-Keys Enforcing--><g id="link_Salt Hashing Api-Keys Generator_Salt Hashing Api-Keys Enforcing"><path codeLine="64" d="M231.47,141.5 C258.93,155.91 293.81,178.43 315,208 C414.41,346.77 292.72,462.06 418,578 C433.49,592.33 441.5164,598.282 461.9764,604.092 " fill="none" id="Salt Hashing Api-Keys Generator-to-Salt Hashing Api-Keys Enforcing" style="stroke:#181818;stroke-width:1.0;"/><polygon fill="#181818" points="473.52,607.37,468.8409,601.8831,461.9764,604.092,466.6555,609.5789,473.52,607.37" style="stroke:#181818;stroke-width:1.0;"/><text fill="#000000" font-family="sans-serif" font-size="13" lengthAdjust="spacing" textLength="59" x="348.5" y="261.0669">Verifying</text></g><!--link Cloud Providers Resource Maps to Cloud Providers Resource Maps Generator--><g id="link_Cloud Providers Resource Maps_Cloud Providers Resource Maps Generator"><path codeLine="66" d="M1178.34,542 C1244.58,542 1315.52,542 1386.97,542 " fill="none" id="Cloud Providers Resource Maps-to-Cloud Providers Resource Maps Generator" style="stroke:#181818;stroke-width:1.0;"/><polygon fill="#181818" points="1398.97,542,1392.97,538,1386.97,542,1392.97,546,1398.97,542" style="stroke:#181818;stroke-width:1.0;"/><text fill="#000000" font-family="sans-serif" font-size="13" lengthAdjust="spacing" textLength="99" x="1227" y="538.0669">Source of Truth</text></g><!--SRC=[hPNFRjf04CRlVeeH9nh9Bu2YIDJG14Ma550FlMtiCQnOTgpPNOfLyUuTkrKID_XFfFg0ZBtpxNmxlnaRp3ru0jQxlOTCCwPUausYGgK7jKCORVQACOD7P8i6nazu3kxJ26vldoZ3kplu5O5SByiJEXx9mb9U6bSjMukYiZlpklRoFaBP33w7WUiDXGnMJ2UT8JjOewF0AS9I5QqAbpUE4hAUoS3AA8imNIrW_9N5TDDLSzClolbgvTnc1MdhMpPgn4nTQLD869L7I4nm7hazx1AzL_WREosqd7_P5Vlwsynx6lp-HtlWIq0Zw5l6odfGXOuFMC86qy08zsYHbIVkowEXjL76muDoUsrtbP5OZBZXMitArIVAP2auc9ybBL6ea7mEHdKm-HYUAtezEl729osipBHBwOHSTY5tbLC7meyBnxPQNWjzG7E4H1h92wHM7l4WJclG5pPdWOz3wgigrDmxeHN5-OnLxfrarM5-eLG2MwAXtIYOqX4sAUl2_uU6x2lrlvRhBe5xmVwdAc5StHmG2-GEYzSPczkSE9L7WqmiW_4wzcWhyjSeQBZwiCzbHzvTe-GcZbk7vmIszRnDAHG6iwWFx0zfTP_XHwIY_kwjvNhdnGHcoFeaUMG3DEFuPa1D9_1TDFDI_bI5wFuer9A3EPt8zd_UK0vRbX4wYdu3]--></g></svg>