<?xml version="1.0" encoding="us-ascii" standalone="no"?><svg xmlns="http://www.w3.org/2000/svg" xmlns:xlink="http://www.w3.org/1999/xlink" contentStyleType="text/css" height="746px" preserveAspectRatio="none" style="width:1326px;height:746px;background:#FFFFFF;" version="1.1" viewBox="0 0 1326 746" width="1326px" zoomAndPan="magnify"><defs/><g><!--cluster Kubernetes Cluster\n CloudProvider (Unspecified)--><g id="cluster_Kubernetes Cluster\n CloudProvider (Unspecified)"><path d="M461.5,636.68 L690.5,636.68 A3.75,3.75 0 0 1 693,639.18 L700,675.2738 L849.5,675.2738 A2.5,2.5 0 0 1 852,677.7738 L852,737.48 A2.5,2.5 0 0 1 849.5,739.98 L461.5,739.98 A2.5,2.5 0 0 1 459,737.48 L459,639.18 A2.5,2.5 0 0 1 461.5,636.68 " fill="none" style="stroke:#000000;stroke-width:1.5;"/><line style="stroke:#000000;stroke-width:1.5;" x1="459" x2="700" y1="675.2738" y2="675.2738"/><text fill="#000000" font-family="sans-serif" font-size="14" font-weight="bold" lengthAdjust="spacing" textLength="155" x="499.5" y="651.6751">Kubernetes Cluster</text><text fill="#000000" font-family="sans-serif" font-size="14" font-weight="bold" lengthAdjust="spacing" textLength="223" x="468" y="667.972">CloudProvider (Unspecified)</text></g><!--entity QdrantStatefulSet--><g id="elem_QdrantStatefulSet"><rect fill="#F1F1F1" height="36.2969" rx="2.5" ry="2.5" style="stroke:#181818;stroke-width:0.5;" width="151" x="474.5" y="687.68"/><text fill="#000000" font-family="sans-serif" font-size="14" lengthAdjust="spacing" textLength="131" x="484.5" y="710.6751">Qdrant StatefulSet</text></g><!--entity LoadBalancerService--><g id="elem_LoadBalancerService"><rect fill="#F1F1F1" height="36.2969" rx="2.5" ry="2.5" style="stroke:#181818;stroke-width:0.5;" width="176" x="660" y="687.68"/><text fill="#000000" font-family="sans-serif" font-size="14" lengthAdjust="spacing" textLength="156" x="670" y="710.6751">LoadBalancer Service</text></g><!--entity actor_api--><g id="elem_actor_api"><ellipse cx="302" cy="14" fill="#F1F1F1" rx="8" ry="8" style="stroke:#181818;stroke-width:0.5;"/><path d="M302,22 L302,49 M289,30 L315,30 M302,49 L289,64 M302,49 L315,64 " fill="none" style="stroke:#181818;stroke-width:0.5;"/></g><g id="elem_GMN3"><path d="M6,7.8 L6,63.1984 A0,0 0 0 0 6,63.1984 L254,63.1984 A0,0 0 0 0 254,63.1984 L254,39.5 L288.21,35.5 L254,31.5 L254,17.8 L244,7.8 L6,7.8 A0,0 0 0 0 6,7.8 " fill="#FEFFDD" style="stroke:#181818;stroke-width:0.5;"/><path d="M244,7.8 L244,17.8 L254,17.8 L244,7.8 " fill="#FEFFDD" style="stroke:#181818;stroke-width:0.5;"/><text fill="#000000" font-family="sans-serif" font-size="13" lengthAdjust="spacing" textLength="154" x="12" y="24.8669">Represents an end-user</text><text fill="#000000" font-family="sans-serif" font-size="13" lengthAdjust="spacing" textLength="227" x="12" y="39.9997">or application that want to Manage</text><text fill="#000000" font-family="sans-serif" font-size="13" lengthAdjust="spacing" textLength="179" x="12" y="55.1325">Qdrant Clusters or API-keys</text></g><!--entity actor_db_cluster--><g id="elem_actor_db_cluster"><ellipse cx="1074" cy="377.59" fill="#F1F1F1" rx="8" ry="8" style="stroke:#181818;stroke-width:0.5;"/><path d="M1074,385.59 L1074,412.59 M1061,393.59 L1087,393.59 M1074,412.59 L1061,427.59 M1074,412.59 L1087,427.59 " fill="none" style="stroke:#181818;stroke-width:0.5;"/></g><g id="elem_GMN7"><path d="M724.5,378.96 L724.5,419.2256 A0,0 0 0 0 724.5,419.2256 L1025.5,419.2256 A0,0 0 0 0 1025.5,419.2256 L1025.5,403.09 L1060.07,399.09 L1025.5,395.09 L1025.5,388.96 L1015.5,378.96 L724.5,378.96 A0,0 0 0 0 724.5,378.96 " fill="#FEFFDD" style="stroke:#181818;stroke-width:0.5;"/><path d="M1015.5,378.96 L1015.5,388.96 L1025.5,388.96 L1015.5,378.96 " fill="#FEFFDD" style="stroke:#181818;stroke-width:0.5;"/><text fill="#000000" font-family="sans-serif" font-size="13" lengthAdjust="spacing" textLength="247" x="730.5" y="396.0269">Represents an end-user or application</text><text fill="#000000" font-family="sans-serif" font-size="13" lengthAdjust="spacing" textLength="280" x="730.5" y="411.1597">that want to conenct the Qdrant DB Cluster</text></g><!--entity api--><g id="elem_api"><rect fill="#F1F1F1" height="36.2969" rx="2.5" ry="2.5" style="stroke:#181818;stroke-width:0.5;" width="194" x="205" y="142.5"/><text fill="#000000" font-family="sans-serif" font-size="14" lengthAdjust="spacing" textLength="174" x="215" y="165.4951">Control Plane API (Orion)</text></g><!--entity gatekeeper--><g id="elem_gatekeeper"><rect fill="#F1F1F1" height="52.5938" rx="2.5" ry="2.5" style="stroke:#181818;stroke-width:0.5;" width="131" x="1008.5" y="506.09"/><text fill="#000000" font-family="sans-serif" font-size="14" lengthAdjust="spacing" textLength="84" x="1018.5" y="529.0851">Gatekeeper</text><text fill="#000000" font-family="sans-serif" font-size="14" lengthAdjust="spacing" textLength="111" x="1018.5" y="545.382">(Reverse Proxy)</text></g><!--entity command_bus--><g id="elem_command_bus"><rect fill="#F1F1F1" height="36.2969" rx="2.5" ry="2.5" style="stroke:#181818;stroke-width:0.5;" width="124" x="276" y="514.24"/><text fill="#000000" font-family="sans-serif" font-size="14" lengthAdjust="spacing" textLength="104" x="286" y="537.2351">Command Bus</text></g><!--entity c_queue--><g id="elem_c_queue"><path d="M257,692.68 L399,692.68 C404,692.68 404,705.8284 404,705.8284 C404,705.8284 404,718.9769 399,718.9769 L257,718.9769 C252,718.9769 252,705.8284 252,705.8284 C252,705.8284 252,692.68 257,692.68 " fill="#F1F1F1" style="stroke:#181818;stroke-width:0.5;"/><path d="M399,692.68 C394,692.68 394,705.8284 394,705.8284 C394,718.9769 399,718.9769 399,718.9769 " fill="none" style="stroke:#181818;stroke-width:0.5;"/><text fill="#000000" font-family="sans-serif" font-size="14" lengthAdjust="spacing" textLength="132" x="257" y="710.6751">Commands Queue</text></g><!--entity use_case--><g id="elem_use_case"><rect fill="#F1F1F1" height="36.2969" rx="2.5" ry="2.5" style="stroke:#181818;stroke-width:0.5;" width="85" x="259.5" y="255.79"/><text fill="#000000" font-family="sans-serif" font-size="14" lengthAdjust="spacing" textLength="65" x="269.5" y="278.7851">Use Case</text></g><!--entity use_case_cluster--><g id="elem_use_case_cluster"><rect fill="#F1F1F1" height="52.5938" rx="2.5" ry="2.5" style="stroke:#181818;stroke-width:0.5;" width="118" x="165" y="372.79"/><text fill="#000000" font-family="sans-serif" font-size="14" lengthAdjust="spacing" textLength="98" x="175" y="395.7851">Provision New</text><text fill="#000000" font-family="sans-serif" font-size="14" lengthAdjust="spacing" textLength="50" x="175" y="412.082">Cluster</text></g><!--entity use_case_api_key--><g id="elem_use_case_api_key"><rect fill="#F1F1F1" height="36.2969" rx="2.5" ry="2.5" style="stroke:#181818;stroke-width:0.5;" width="124" x="318" y="380.94"/><text fill="#000000" font-family="sans-serif" font-size="14" lengthAdjust="spacing" textLength="104" x="328" y="403.9351">Create API Key</text></g><!--entity nebula--><g id="elem_nebula"><rect fill="#F1F1F1" height="52.5938" rx="2.5" ry="2.5" style="stroke:#181818;stroke-width:0.5;" width="187" x="476.5" y="372.79"/><text fill="#000000" font-family="sans-serif" font-size="14" lengthAdjust="spacing" textLength="167" x="486.5" y="395.7851">Asynchronous Executor</text><text fill="#000000" font-family="sans-serif" font-size="14" lengthAdjust="spacing" textLength="60" x="486.5" y="412.082">(Nebula)</text></g><!--entity helm--><g id="elem_helm"><rect fill="#F1F1F1" height="36.2969" rx="2.5" ry="2.5" style="stroke:#181818;stroke-width:0.5;" width="101" x="519.5" y="514.24"/><text fill="#000000" font-family="sans-serif" font-size="14" lengthAdjust="spacing" textLength="81" x="529.5" y="537.2351">Helm Chart</text></g><!--entity endpoint--><g id="elem_endpoint"><rect fill="#F1F1F1" height="52.5938" rx="2.5" ry="2.5" style="stroke:#181818;stroke-width:0.5;" width="94" x="871" y="679.53"/><text fill="#000000" font-family="sans-serif" font-size="14" lengthAdjust="spacing" textLength="74" x="881" y="702.5251">Qdrant DB</text><text fill="#000000" font-family="sans-serif" font-size="14" lengthAdjust="spacing" textLength="63" x="881" y="718.822">Endpoint</text></g><!--entity salt_key--><g id="elem_salt_key"><rect fill="#F1F1F1" height="36.2969" rx="2.5" ry="2.5" style="stroke:#181818;stroke-width:0.5;" width="162" x="1000" y="687.68"/><text fill="#000000" font-family="sans-serif" font-size="14" lengthAdjust="spacing" textLength="142" x="1010" y="710.6751">SaltHashing Api Key</text></g><!--entity twisted--><g id="elem_twisted"><rect fill="#F1F1F1" height="52.5938" rx="2.5" ry="2.5" style="stroke:#181818;stroke-width:0.5;" width="100" x="1203" y="679.53"/><text fill="#000000" font-family="sans-serif" font-size="14" lengthAdjust="spacing" textLength="54" x="1213" y="702.5251">Twisted</text><text fill="#000000" font-family="sans-serif" font-size="14" lengthAdjust="spacing" textLength="80" x="1213" y="718.822">Framework</text></g><!--link actor_api to api--><g id="link_actor_api_api"><path codeLine="82" d="M302,65.99 C302,89.76 302,116.37 302,136.17 " fill="none" id="actor_api-to-api" style="stroke:#181818;stroke-width:1.0;"/><polygon fill="#181818" points="302,142.17,306,133.17,302,137.17,298,133.17,302,142.17" style="stroke:#181818;stroke-width:1.0;"/><text fill="#000000" font-family="sans-serif" font-size="13" lengthAdjust="spacing" textLength="91" x="303" y="108.5669">HTTP Request</text></g><!--link actor_db_cluster to gatekeeper--><g id="link_actor_db_cluster_gatekeeper"><path codeLine="83" d="M1074,429.55 C1074,452.54 1074,478.13 1074,500 " fill="none" id="actor_db_cluster-to-gatekeeper" style="stroke:#181818;stroke-width:1.0;"/><polygon fill="#181818" points="1074,506,1078,497,1074,501,1070,497,1074,506" style="stroke:#181818;stroke-width:1.0;"/><text fill="#000000" font-family="sans-serif" font-size="13" lengthAdjust="spacing" textLength="91" x="1075" y="472.1569">HTTP Request</text></g><!--link api to use_case--><g id="link_api_use_case"><path codeLine="84" d="M302,179.03 C302,199.82 302,228.41 302,249.31 " fill="none" id="api-to-use_case" style="stroke:#181818;stroke-width:1.0;"/><polygon fill="#181818" points="302,255.31,306,246.31,302,250.31,298,246.31,302,255.31" style="stroke:#181818;stroke-width:1.0;"/><text fill="#000000" font-family="sans-serif" font-size="13" lengthAdjust="spacing" textLength="52" x="303" y="221.8569">Execute</text></g><!--link use_case to use_case_cluster--><g id="link_use_case_use_case_cluster"><path codeLine="85" d="M290.82,292.59 C277.6,313.47 258.6699,343.3508 243.5299,367.2608 " fill="none" id="use_case-to-use_case_cluster" style="stroke:#181818;stroke-width:1.0;"/><polygon fill="#181818" points="240.32,372.33,248.5143,366.8661,242.9949,368.1057,241.7553,362.5863,240.32,372.33" style="stroke:#181818;stroke-width:1.0;"/><text fill="#000000" font-family="sans-serif" font-size="13" lengthAdjust="spacing" textLength="39" x="271" y="335.1569">Async</text></g><!--link use_case_cluster to command_bus--><g id="link_use_case_cluster_command_bus"><path codeLine="86" d="M246.25,425.72 C268.8,451.69 299.1462,486.6396 318.7962,509.2696 " fill="none" id="use_case_cluster-to-command_bus" style="stroke:#181818;stroke-width:1.0;"/><polygon fill="#181818" points="322.73,513.8,319.8495,504.3818,319.4518,510.0246,313.8089,509.6269,322.73,513.8" style="stroke:#181818;stroke-width:1.0;"/><text fill="#000000" font-family="sans-serif" font-size="13" lengthAdjust="spacing" textLength="57" x="289" y="472.1569">Dispatch</text></g><!--link command_bus to c_queue--><g id="link_command_bus_c_queue"><path codeLine="87" d="M311.99,550.96 C300.16,560.56 287.39,573.57 281,588.68 C265.15,626.15 293.5907,666.3243 312.2007,687.7043 " fill="none" id="command_bus-to-c_queue" style="stroke:#181818;stroke-width:1.0;"/><polygon fill="#181818" points="316.14,692.23,313.2481,682.8153,312.8572,688.4586,307.2139,688.0677,316.14,692.23" style="stroke:#181818;stroke-width:1.0;"/><text fill="#000000" font-family="sans-serif" font-size="13" lengthAdjust="spacing" textLength="47" x="282" y="609.2469">Publish</text></g><!--reverse link command_bus to c_queue--><g id="link_command_bus_c_queue"><path codeLine="88" d="M337.092,556.7753 C336.392,574.4053 335.42,596.45 334,620.68 C332.51,646.12 330.27,675.86 328.99,692.29 " fill="none" id="command_bus-backto-c_queue" style="stroke:#181818;stroke-width:1.0;"/><polygon fill="#181818" points="337.33,550.78,332.9761,559.6142,337.1316,555.7761,340.9698,559.9316,337.33,550.78" style="stroke:#181818;stroke-width:1.0;"/><text fill="#000000" font-family="sans-serif" font-size="13" lengthAdjust="spacing" textLength="63" x="337" y="609.2469">Subscribe</text></g><!--link use_case to use_case_api_key--><g id="link_use_case_use_case_api_key"><path codeLine="89" d="M313.18,292.59 C328,316 350.8197,352.0111 365.6397,375.4111 " fill="none" id="use_case-to-use_case_api_key" style="stroke:#181818;stroke-width:1.0;"/><polygon fill="#181818" points="368.85,380.48,367.4138,370.7364,366.1747,376.2559,360.6553,375.0168,368.85,380.48" style="stroke:#181818;stroke-width:1.0;"/><text fill="#000000" font-family="sans-serif" font-size="13" lengthAdjust="spacing" textLength="31" x="342" y="335.1569">Sync</text></g><!--reverse link nebula to command_bus--><g id="link_nebula_command_bus"><path codeLine="90" d="M519.2183,428.8254 C473.2983,454.8154 408.89,491.27 369,513.84 " fill="none" id="nebula-backto-command_bus" style="stroke:#181818;stroke-width:1.0;"/><polygon fill="#181818" points="524.44,425.87,514.6373,426.822,520.0886,428.3328,518.5778,433.7842,524.44,425.87" style="stroke:#181818;stroke-width:1.0;"/><text fill="#000000" font-family="sans-serif" font-size="13" lengthAdjust="spacing" textLength="55" x="461" y="472.1569">Retrieve</text></g><!--link nebula to helm--><g id="link_nebula_helm"><path codeLine="91" d="M570,425.72 C570,451.69 570,485.17 570,507.8 " fill="none" id="nebula-to-helm" style="stroke:#181818;stroke-width:1.0;"/><polygon fill="#181818" points="570,513.8,574,504.8,570,508.8,566,504.8,570,513.8" style="stroke:#181818;stroke-width:1.0;"/><text fill="#000000" font-family="sans-serif" font-size="13" lengthAdjust="spacing" textLength="59" x="571" y="472.1569">compose</text></g><!--link helm to QdrantStatefulSet--><g id="link_helm_QdrantStatefulSet"><path codeLine="92" d="M567.97,550.77 C564.14,583.63 556.5658,648.5505 552.7258,681.4405 " fill="none" id="helm-to-QdrantStatefulSet" style="stroke:#181818;stroke-width:1.0;"/><polygon fill="#181818" points="552.03,687.4,557.0467,678.9246,552.6098,682.4337,549.1007,677.9969,552.03,687.4" style="stroke:#181818;stroke-width:1.0;"/><text fill="#000000" font-family="sans-serif" font-size="13" lengthAdjust="spacing" textLength="60" x="564" y="609.2469">Provision</text></g><!--link helm to LoadBalancerService--><g id="link_helm_LoadBalancerService"><path codeLine="93" d="M590.75,550.96 C603.2,561.66 619.23,575.71 633,588.68 C669.15,622.73 705.4775,660.1596 727.4575,683.1896 " fill="none" id="helm-to-LoadBalancerService" style="stroke:#181818;stroke-width:1.0;"/><polygon fill="#181818" points="731.6,687.53,728.2798,678.2577,728.1479,683.913,722.4926,683.781,731.6,687.53" style="stroke:#181818;stroke-width:1.0;"/><text fill="#000000" font-family="sans-serif" font-size="13" lengthAdjust="spacing" textLength="60" x="666" y="609.2469">Provision</text></g><!--link gatekeeper to twisted--><g id="link_gatekeeper_twisted"><path codeLine="94" d="M1094.26,559.09 C1112.54,581.69 1138.57,612.26 1152,620.68 C1162.97,627.56 1168.92,622 1180,628.68 C1201.49,641.63 1217.1171,657.8566 1230.5071,674.4866 " fill="none" id="gatekeeper-to-twisted" style="stroke:#181818;stroke-width:1.0;"/><polygon fill="#181818" points="1234.27,679.16,1231.7413,669.6413,1231.1343,675.2655,1225.5101,674.6585,1234.27,679.16" style="stroke:#181818;stroke-width:1.0;"/><text fill="#000000" font-family="sans-serif" font-size="13" lengthAdjust="spacing" textLength="57" x="1153" y="601.7469">Get Host</text><text fill="#000000" font-family="sans-serif" font-size="13" lengthAdjust="spacing" textLength="47" x="1160" y="616.8797">Header</text></g><!--link gatekeeper to twisted--><g id="link_gatekeeper_twisted"><path codeLine="95" d="M1139.85,544.94 C1167.67,552.92 1198.35,566.32 1219,588.68 C1242.09,613.69 1249.0212,647.5852 1251.4012,673.4952 " fill="none" id="gatekeeper-to-twisted-1" style="stroke:#181818;stroke-width:1.0;"/><polygon fill="#181818" points="1251.95,679.47,1255.11,670.1418,1251.4926,674.491,1247.1435,670.8736,1251.95,679.47" style="stroke:#181818;stroke-width:1.0;"/><text fill="#000000" font-family="sans-serif" font-size="13" lengthAdjust="spacing" textLength="76" x="1238" y="601.7469">Get api-key</text><text fill="#000000" font-family="sans-serif" font-size="13" lengthAdjust="spacing" textLength="47" x="1254.5" y="616.8797">Header</text></g><!--link gatekeeper to endpoint--><g id="link_gatekeeper_endpoint"><path codeLine="96" d="M1039.06,559.15 C1028,567.99 1016.04,578.29 1006,588.68 C978.23,617.43 954.576,649.9631 937.966,674.4731 " fill="none" id="gatekeeper-to-endpoint" style="stroke:#181818;stroke-width:1.0;"/><polygon fill="#181818" points="934.6,679.44,942.9602,674.2336,937.405,675.3009,936.3377,669.7457,934.6,679.44" style="stroke:#181818;stroke-width:1.0;"/><text fill="#000000" font-family="sans-serif" font-size="13" lengthAdjust="spacing" textLength="54" x="1007" y="609.2469">Matches</text></g><!--link gatekeeper to salt_key--><g id="link_gatekeeper_salt_key"><path codeLine="97" d="M1072.32,558.98 C1071.79,568.32 1071.26,578.98 1071,588.68 C1070.61,602.9 1070.16,606.49 1071,620.68 C1072.37,643.89 1074.9963,664.5625 1077.4663,681.5425 " fill="none" id="gatekeeper-to-salt_key" style="stroke:#181818;stroke-width:1.0;"/><polygon fill="#181818" points="1078.33,687.48,1080.9928,677.9979,1077.6102,682.5321,1073.0761,679.1495,1078.33,687.48" style="stroke:#181818;stroke-width:1.0;"/><text fill="#000000" font-family="sans-serif" font-size="13" lengthAdjust="spacing" textLength="39" x="1072" y="609.2469">Verify</text></g><!--link gatekeeper to LoadBalancerService--><g id="link_gatekeeper_LoadBalancerService"><path codeLine="98" d="M1008.28,548.1 C974.22,557.18 932.63,570.58 898,588.68 C845.46,616.15 797.028,658.3072 770.298,683.3572 " fill="none" id="gatekeeper-to-LoadBalancerService" style="stroke:#181818;stroke-width:1.0;"/><polygon fill="#181818" points="765.92,687.46,775.2222,684.2244,769.5683,684.041,769.7518,678.3871,765.92,687.46" style="stroke:#181818;stroke-width:1.0;"/><text fill="#000000" font-family="sans-serif" font-size="13" lengthAdjust="spacing" textLength="71" x="899" y="609.2469">Proxy pass</text></g><!--SRC=[ZLHDRzim3BthLn0zfOVy0MCOqAHTCtJhqgRTPHq2MMPY8OxawQEfCUo_Zr9iHqxIOJauClb8FPAFjXkfQcxu5eJUrbgXSWlNL0W6XUDgNI5ZN3Xj83wNl9RmW_raIZk42bUEmIFM1Yq5Mk0AK1LZRz4m235rNKd1dTGANCaTxBXou3HyvOglaS53OO9bMddhqDWGSpN_FDvWOnbbWd3Da42HByKU_NyyZcYm8GyHAXPqBB7ZSZtfw2GC-kR0lW5JhPpH5SmhhZ1GXj4tG-alYL82NdE76yGwahtjNzZe4L-fN8IvqM_DKH2TjbmLozpRU5DyWuct0VRBeqSGo_r_xxRm40p3H5J-Kd0ROC_qdDBnF23fA15wbJRCwnvth6l4-IXgnP8c5LWOfE9Y7-wm6S8LvhxY1BgoZHAbqKfJOJTlA3pDautke_-e1oLMMmgPXRzfoOqBxfgB3Qa6BkvyZaQXGzkDwaNHIViYqY-eaj6piZKAkP9ON5x0RmRqE-JVpthXYFNALmjqT5b0j1f87D5Cbm_ZlsXUJ3WDNw1Pe7cL0jiCgGTQLvVZJreYYQlMKeMRU-MnczOux8RbbMixlQ3ZZDjIgZLSaHHFskrsaXfI4FHfVsAVQBjnfyqc00zRF1v_Z6BEOFRqDAVj8KbPnqwsBE0I7H_3sqozrh9sjCXwK-hlqsOGzS1E706Tha06rzBMt8cIfUO8QzSWWxdFAsc7Y0_ZSO9O-DmA8_FtU7LY9cIWrQesvXYGUKHd96rlXmX9ebgplJnen-9hi9-gB8D-mGwmSs9AWKdt0xoRS0Qtb76chOCNDKDEilytb4eCNzPtqRqYC_e-Kx_H7YDw8MRm7OrSDSU0TqjvQw3crhA_]--></g></svg>